<?xml version="1.0" encoding="UTF-8"?>
<svg xmlns="http://www.w3.org/2000/svg" xmlns:xlink="http://www.w3.org/1999/xlink" width="64px" height="64px" viewBox="0 0 64 64" version="1.1">
<g id="surface1">
<path style=" stroke:none;fill-rule:nonzero;fill:rgb(89.411765%,90.196079%,91.764706%);fill-opacity:1;" d="M 30.613281 0.078125 C 30.765625 0.078125 30.765625 0.078125 30.925781 0.078125 C 31.253906 0.0742188 31.582031 0.0742188 31.914062 0.0742188 C 32.023438 0.0742188 32.136719 0.0742188 32.253906 0.0742188 C 33.855469 0.078125 35.417969 0.109375 37 0.398438 C 37.097656 0.417969 37.199219 0.433594 37.300781 0.453125 C 41.839844 1.242188 46.332031 2.910156 50.101562 5.601562 C 50.167969 5.648438 50.238281 5.699219 50.3125 5.75 C 51.386719 6.519531 52.417969 7.316406 53.398438 8.199219 C 53.492188 8.28125 53.492188 8.28125 53.582031 8.363281 C 54.925781 9.574219 56.167969 10.859375 57.253906 12.304688 C 57.414062 12.515625 57.574219 12.722656 57.734375 12.933594 C 58.625 14.101562 59.382812 15.320312 60.101562 16.601562 C 60.140625 16.675781 60.183594 16.746094 60.226562 16.824219 C 62.566406 20.945312 64 25.964844 64.019531 30.714844 C 64.019531 30.816406 64.023438 30.917969 64.023438 31.023438 C 64.023438 31.355469 64.023438 31.683594 64.023438 32.011719 C 64.023438 32.179688 64.023438 32.179688 64.023438 32.351562 C 64.023438 33.957031 63.992188 35.519531 63.699219 37.101562 C 63.683594 37.199219 63.664062 37.300781 63.648438 37.402344 C 62.855469 41.941406 61.1875 46.433594 58.5 50.199219 C 58.449219 50.269531 58.402344 50.339844 58.347656 50.410156 C 57.582031 51.484375 56.785156 52.519531 55.898438 53.5 C 55.820312 53.589844 55.820312 53.589844 55.734375 53.683594 C 54.527344 55.023438 53.238281 56.265625 51.792969 57.355469 C 51.582031 57.511719 51.375 57.671875 51.167969 57.832031 C 50 58.722656 48.777344 59.480469 47.5 60.199219 C 47.371094 60.273438 47.246094 60.347656 47.117188 60.421875 C 42.660156 62.914062 37.574219 64.082031 32.496094 64.058594 C 32.1875 64.054688 31.878906 64.058594 31.566406 64.058594 C 28.902344 64.082031 26.339844 63.855469 23.761719 63.125 C 23.640625 63.089844 23.519531 63.058594 23.390625 63.023438 C 20.027344 62.070312 16.753906 60.636719 13.898438 58.601562 C 13.832031 58.550781 13.761719 58.5 13.6875 58.449219 C 12.613281 57.679688 11.582031 56.882812 10.601562 56 C 10.507812 55.917969 10.507812 55.917969 10.417969 55.835938 C 9.074219 54.625 7.832031 53.339844 6.746094 51.894531 C 6.585938 51.683594 6.425781 51.476562 6.265625 51.265625 C 5.375 50.101562 4.617188 48.878906 3.898438 47.601562 C 3.859375 47.527344 3.816406 47.453125 3.773438 47.375 C 1.433594 43.253906 0 38.234375 -0.0195312 33.488281 C -0.0195312 33.382812 -0.0234375 33.28125 -0.0234375 33.175781 C -0.0234375 32.847656 -0.0234375 32.515625 -0.0234375 32.1875 C -0.0234375 32.074219 -0.0234375 31.960938 -0.0234375 31.847656 C -0.0234375 30.242188 0.0078125 28.679688 0.300781 27.101562 C 0.316406 27 0.335938 26.902344 0.351562 26.796875 C 1.144531 22.257812 2.8125 17.765625 5.5 14 C 5.550781 13.929688 5.597656 13.859375 5.652344 13.789062 C 6.417969 12.714844 7.214844 11.679688 8.101562 10.699219 C 8.152344 10.640625 8.207031 10.578125 8.265625 10.515625 C 9.472656 9.175781 10.761719 7.933594 12.207031 6.847656 C 12.417969 6.6875 12.625 6.527344 12.832031 6.367188 C 14 5.476562 15.222656 4.71875 16.5 4 C 16.574219 3.957031 16.648438 3.914062 16.722656 3.871094 C 20.847656 1.535156 25.867188 0.101562 30.613281 0.078125 Z M 30.613281 0.078125 "/>
<path style=" stroke:none;fill-rule:nonzero;fill:rgb(41.960785%,44.705883%,50.196081%);fill-opacity:1;" d="M 28.730469 11.683594 C 28.902344 11.683594 29.074219 11.683594 29.25 11.683594 C 29.714844 11.679688 30.179688 11.679688 30.644531 11.679688 C 30.9375 11.679688 31.230469 11.679688 31.519531 11.679688 C 32.4375 11.675781 33.351562 11.675781 34.265625 11.675781 C 35.316406 11.675781 36.371094 11.675781 37.421875 11.671875 C 38.238281 11.667969 39.054688 11.667969 39.871094 11.667969 C 40.355469 11.667969 40.84375 11.667969 41.328125 11.664062 C 41.785156 11.664062 42.242188 11.664062 42.699219 11.664062 C 42.867188 11.664062 43.035156 11.664062 43.203125 11.664062 C 45.1875 11.652344 46.488281 12.125 47.917969 13.511719 C 47.980469 13.574219 48.039062 13.636719 48.101562 13.699219 C 48.488281 14.097656 48.898438 14.460938 49.320312 14.824219 C 49.378906 14.882812 49.4375 14.941406 49.5 15 C 49.5 15.066406 49.5 15.132812 49.5 15.199219 C 49.566406 15.199219 49.632812 15.199219 49.699219 15.199219 C 49.699219 15.265625 49.699219 15.332031 49.699219 15.398438 C 49.777344 15.425781 49.855469 15.449219 49.9375 15.476562 C 50.242188 15.621094 50.261719 15.703125 50.398438 16 C 50.589844 16.117188 50.589844 16.117188 50.800781 16.199219 C 51.273438 16.515625 51.429688 16.964844 51.601562 17.5 C 51.730469 18.363281 51.617188 19.085938 51.101562 19.800781 C 50.507812 20.4375 49.925781 20.667969 49.0625 20.710938 C 48.792969 20.722656 48.519531 20.726562 48.246094 20.730469 C 48.148438 20.734375 48.050781 20.734375 47.949219 20.738281 C 47.632812 20.746094 47.320312 20.75 47.007812 20.757812 C 46.792969 20.761719 46.578125 20.765625 46.367188 20.769531 C 45.84375 20.78125 45.320312 20.789062 44.800781 20.800781 C 44.671875 21.222656 44.765625 21.453125 44.917969 21.867188 C 45.359375 23.117188 45.664062 24.371094 45.699219 25.699219 C 45.703125 25.816406 45.707031 25.9375 45.710938 26.058594 C 45.761719 28.953125 45.011719 32 43.199219 34.300781 C 43.085938 34.449219 43.085938 34.449219 42.972656 34.597656 C 42.128906 35.664062 41.054688 36.644531 39.800781 37.199219 C 39.699219 37.199219 39.601562 37.199219 39.5 37.199219 C 39.5 37.316406 39.5 37.316406 39.5 37.4375 C 39.503906 39.339844 39.503906 41.238281 39.503906 43.140625 C 39.503906 44.058594 39.507812 44.980469 39.507812 45.898438 C 39.507812 46.699219 39.507812 47.5 39.507812 48.300781 C 39.507812 48.726562 39.511719 49.148438 39.511719 49.574219 C 39.511719 49.972656 39.511719 50.371094 39.511719 50.769531 C 39.511719 50.917969 39.511719 51.066406 39.511719 51.210938 C 39.511719 51.410156 39.511719 51.609375 39.511719 51.8125 C 39.511719 51.980469 39.511719 51.980469 39.511719 52.148438 C 39.5 52.398438 39.5 52.398438 39.398438 52.5 C 39.101562 52.515625 38.808594 52.523438 38.511719 52.523438 C 38.386719 52.527344 38.386719 52.527344 38.261719 52.53125 C 38.179688 52.53125 38.101562 52.53125 38.019531 52.53125 C 37.945312 52.535156 37.875 52.535156 37.796875 52.535156 C 37.539062 52.488281 37.457031 52.40625 37.300781 52.199219 C 37.234375 51.929688 37.183594 51.671875 37.144531 51.398438 C 37.121094 51.257812 37.097656 51.113281 37.074219 50.96875 C 37.058594 50.855469 37.058594 50.855469 37.039062 50.738281 C 37 50.488281 36.949219 50.242188 36.902344 49.996094 C 36.78125 49.332031 36.710938 48.664062 36.636719 47.992188 C 36.503906 46.78125 36.363281 45.574219 36.199219 44.367188 C 36.183594 44.25 36.167969 44.128906 36.152344 44.003906 C 36.074219 43.4375 35.996094 42.871094 35.917969 42.304688 C 35.542969 39.585938 35.542969 39.585938 35.5 38.300781 C 35.429688 38.316406 35.363281 38.332031 35.292969 38.347656 C 34.964844 38.40625 34.660156 38.414062 34.332031 38.414062 C 34.136719 38.414062 34.136719 38.414062 33.9375 38.414062 C 33.839844 38.414062 33.839844 38.414062 33.734375 38.414062 C 33.535156 38.414062 33.332031 38.414062 33.128906 38.414062 C 32.414062 38.414062 31.710938 38.390625 31 38.300781 C 31.019531 38.363281 31.039062 38.425781 31.058594 38.488281 C 31.109375 38.65625 31.15625 38.824219 31.207031 38.988281 C 31.269531 39.203125 31.335938 39.417969 31.402344 39.628906 C 32.152344 42.125 32.03125 44.757812 30.796875 47.097656 C 30.585938 47.449219 30.351562 47.777344 30.101562 48.101562 C 30.03125 48.191406 29.960938 48.285156 29.890625 48.382812 C 29.828125 48.453125 29.765625 48.527344 29.699219 48.601562 C 29.632812 48.601562 29.566406 48.601562 29.5 48.601562 C 29.5 48.664062 29.5 48.730469 29.5 48.800781 C 29.433594 48.800781 29.367188 48.800781 29.300781 48.800781 C 29.277344 48.859375 29.253906 48.917969 29.230469 48.976562 C 29.066406 49.257812 28.886719 49.382812 28.617188 49.5625 C 28.535156 49.621094 28.449219 49.679688 28.359375 49.742188 C 28.113281 49.890625 27.871094 50 27.601562 50.101562 C 27.601562 50.164062 27.601562 50.230469 27.601562 50.300781 C 28.984375 50.300781 30.371094 50.300781 31.800781 50.300781 C 31.867188 50.496094 31.933594 50.695312 32 50.898438 C 32.066406 50.898438 32.132812 50.898438 32.199219 50.898438 C 32.304688 51.0625 32.40625 51.230469 32.5 51.398438 C 32.597656 51.546875 32.597656 51.546875 32.699219 51.699219 C 32.679688 51.96875 32.640625 52.140625 32.488281 52.363281 C 32.203125 52.570312 31.964844 52.539062 31.617188 52.539062 C 31.546875 52.539062 31.476562 52.539062 31.402344 52.539062 C 31.167969 52.539062 30.933594 52.539062 30.699219 52.539062 C 30.53125 52.539062 30.363281 52.539062 30.191406 52.539062 C 29.734375 52.542969 29.277344 52.542969 28.820312 52.539062 C 28.339844 52.539062 27.859375 52.539062 27.382812 52.539062 C 26.578125 52.542969 25.773438 52.539062 24.96875 52.539062 C 24.035156 52.539062 23.105469 52.539062 22.175781 52.539062 C 21.378906 52.542969 20.578125 52.542969 19.78125 52.539062 C 19.304688 52.539062 18.828125 52.539062 18.351562 52.539062 C 17.902344 52.542969 17.453125 52.542969 17.003906 52.539062 C 16.839844 52.539062 16.675781 52.539062 16.511719 52.539062 C 16.285156 52.539062 16.058594 52.539062 15.835938 52.539062 C 15.710938 52.539062 15.582031 52.539062 15.453125 52.539062 C 14.925781 52.480469 14.542969 52.296875 14.101562 52 C 14.101562 51.933594 14.101562 51.867188 14.101562 51.800781 C 14.035156 51.800781 13.96875 51.800781 13.898438 51.800781 C 12.921875 50.019531 13.039062 47.585938 13.042969 45.617188 C 13.042969 45.503906 13.042969 45.386719 13.042969 45.269531 C 13.050781 41.339844 13.898438 37.800781 16.101562 34.5 C 16.164062 34.5 16.230469 34.5 16.300781 34.5 C 16.332031 34.421875 16.363281 34.34375 16.394531 34.261719 C 16.5 34 16.5 34 16.601562 33.800781 C 16.664062 33.800781 16.730469 33.800781 16.800781 33.800781 C 16.800781 33.734375 16.800781 33.667969 16.800781 33.601562 C 16.867188 33.601562 16.933594 33.601562 17 33.601562 C 17.015625 33.53125 17.03125 33.464844 17.050781 33.394531 C 17.238281 33.027344 17.480469 32.832031 17.796875 32.570312 C 17.96875 32.425781 18.125 32.277344 18.28125 32.113281 C 18.5 31.898438 18.5 31.898438 18.800781 31.800781 C 18.800781 31.734375 18.800781 31.667969 18.800781 31.601562 C 19.003906 31.429688 19.003906 31.429688 19.289062 31.230469 C 19.386719 31.160156 19.488281 31.089844 19.59375 31.015625 C 19.695312 30.945312 19.796875 30.875 19.898438 30.800781 C 19.988281 30.738281 20.074219 30.675781 20.164062 30.613281 C 20.410156 30.441406 20.652344 30.269531 20.898438 30.101562 C 21.019531 30.019531 21.019531 30.019531 21.136719 29.933594 C 21.578125 29.628906 22.003906 29.40625 22.5 29.199219 C 22.671875 29.105469 22.84375 29.007812 23.011719 28.914062 C 23.527344 28.625 24.050781 28.414062 24.605469 28.21875 C 24.898438 28.109375 24.898438 28.109375 25.144531 27.953125 C 25.453125 27.769531 25.769531 27.644531 26.105469 27.511719 C 26.242188 27.460938 26.375 27.40625 26.511719 27.351562 C 26.578125 27.328125 26.644531 27.300781 26.710938 27.273438 C 28.058594 26.746094 29.386719 26.152344 30.644531 25.441406 C 30.820312 25.34375 30.996094 25.25 31.171875 25.160156 C 32.28125 24.59375 33.402344 23.746094 34.101562 22.699219 C 34.164062 22.699219 34.230469 22.699219 34.300781 22.699219 C 34.339844 22.621094 34.339844 22.621094 34.382812 22.539062 C 34.519531 22.257812 34.660156 21.980469 34.800781 21.699219 C 34.867188 21.699219 34.933594 21.699219 35 21.699219 C 35 21.601562 35 21.503906 35 21.398438 C 35.066406 21.398438 35.132812 21.398438 35.199219 21.398438 C 35.207031 21.332031 35.21875 21.261719 35.226562 21.191406 C 35.316406 20.832031 35.484375 20.535156 35.667969 20.210938 C 36.527344 18.652344 37.121094 16.910156 37.601562 15.199219 C 37.074219 15.332031 36.640625 15.519531 36.167969 15.789062 C 35.59375 16.105469 35.019531 16.371094 34.398438 16.601562 C 34.246094 16.664062 34.089844 16.726562 33.9375 16.789062 C 33.757812 16.859375 33.578125 16.929688 33.398438 17 C 33.289062 17.046875 33.175781 17.089844 33.0625 17.136719 C 31.988281 17.566406 30.890625 17.855469 29.769531 18.132812 C 29.527344 18.191406 29.285156 18.253906 29.042969 18.320312 C 26.785156 18.910156 23.640625 19.503906 21.5 18.300781 C 21.4375 18.265625 21.378906 18.234375 21.316406 18.199219 C 20.925781 17.964844 20.925781 17.964844 20.832031 17.734375 C 20.679688 16.660156 20.910156 15.65625 21.398438 14.699219 C 21.4375 14.625 21.476562 14.546875 21.515625 14.46875 C 21.558594 14.382812 21.558594 14.382812 21.601562 14.300781 C 21.664062 14.300781 21.730469 14.300781 21.800781 14.300781 C 21.824219 14.226562 21.84375 14.152344 21.867188 14.074219 C 22.027344 13.746094 22.199219 13.601562 22.5 13.398438 C 22.566406 13.398438 22.632812 13.398438 22.699219 13.398438 C 22.75 13.25 22.75 13.25 22.800781 13.101562 C 22.980469 12.976562 22.980469 12.976562 23.210938 12.855469 C 23.292969 12.8125 23.375 12.769531 23.460938 12.726562 C 23.578125 12.664062 23.578125 12.664062 23.699219 12.601562 C 23.824219 12.527344 23.945312 12.453125 24.070312 12.382812 C 25.480469 11.609375 27.167969 11.683594 28.730469 11.683594 Z M 28.730469 11.683594 "/>
</g>
</svg>
