<?xml version="1.0" encoding="UTF-8"?>
<svg version="1.1" xmlns="http://www.w3.org/2000/svg" width="640" height="640">
<path d="M0 0 C1.54052284 -0.01052147 1.54052284 -0.01052147 3.11216736 -0.02125549 C6.40555255 -0.03865531 9.69875804 -0.04510709 12.9921875 -0.046875 C14.11656219 -0.04754974 15.24093689 -0.04822449 16.39938354 -0.04891968 C32.43889807 -0.03359963 48.0523625 0.29546659 63.8671875 3.203125 C64.86218262 3.37473145 65.85717773 3.54633789 66.88232422 3.72314453 C112.27652921 11.62915471 157.19736454 28.30949518 194.8671875 55.203125 C195.56521484 55.70038086 196.26324219 56.19763672 196.98242188 56.70996094 C207.7187045 64.39218823 218.06516221 72.35732686 227.8671875 81.203125 C228.77114258 82.01450928 228.77114258 82.01450928 229.69335938 82.84228516 C243.11269763 94.94552286 255.53843387 107.81185242 266.40722656 122.26757812 C267.99094025 124.36719052 269.59746608 126.44838155 271.203125 128.53125 C280.1018516 140.20394326 287.68832604 152.41134323 294.8671875 165.203125 C295.28838867 165.94240234 295.70958984 166.68167969 296.14355469 167.44335938 C319.53229641 208.66770382 333.85235688 258.85631644 334.0703125 306.3359375 C334.07732681 307.36295273 334.08434113 308.38996796 334.09156799 309.44810486 C334.10896781 312.74149005 334.11541959 316.03469554 334.1171875 319.328125 C334.11819962 321.01468704 334.11819962 321.01468704 334.11923218 322.73532104 C334.10391213 338.77483557 333.77484591 354.3883 330.8671875 370.203125 C330.69558105 371.19812012 330.52397461 372.19311523 330.34716797 373.21826172 C322.44115779 418.61246671 305.76081732 463.53330204 278.8671875 501.203125 C278.36993164 501.90115234 277.87267578 502.59917969 277.36035156 503.31835938 C269.67812427 514.054642 261.71298564 524.40109971 252.8671875 534.203125 C252.05580322 535.10708008 252.05580322 535.10708008 251.22802734 536.02929688 C239.12478964 549.44863513 226.25846008 561.87437137 211.80273438 572.74316406 C209.70312198 574.32687775 207.62193095 575.93340358 205.5390625 577.5390625 C193.86435395 586.43867599 181.64555686 593.99873335 168.8671875 601.203125 C167.59624464 601.93731044 166.32539847 602.67166329 165.0546875 603.40625 C120.46032391 628.33855328 69.59228079 640.01138808 18.84692383 639.77954102 C15.74394326 639.76583076 12.64219582 639.77267208 9.53930664 639.80004883 C-17.09270437 640.0339734 -42.74607959 637.77276528 -68.5078125 630.453125 C-69.73145508 630.11442383 -70.95509766 629.77572266 -72.21582031 629.42675781 C-105.85941254 619.89774866 -138.58690431 605.58291518 -167.1328125 585.203125 C-167.83083984 584.70586914 -168.52886719 584.20861328 -169.24804688 583.69628906 C-179.9843295 576.01406177 -190.33078721 568.04892314 -200.1328125 559.203125 C-201.03676758 558.39174072 -201.03676758 558.39174072 -201.95898438 557.56396484 C-215.37832263 545.46072714 -227.80405887 532.59439758 -238.67285156 518.13867188 C-240.25656525 516.03905948 -241.86309108 513.95786845 -243.46875 511.875 C-252.3674766 500.20230674 -259.95395104 487.99490677 -267.1328125 475.203125 C-267.55401367 474.46384766 -267.97521484 473.72457031 -268.40917969 472.96289062 C-291.79792141 431.73854618 -306.11798188 381.54993356 -306.3359375 334.0703125 C-306.34295181 333.04329727 -306.34996613 332.01628204 -306.35719299 330.95814514 C-306.37459281 327.66475995 -306.38104459 324.37155446 -306.3828125 321.078125 C-306.38348724 319.95375031 -306.38416199 318.82937561 -306.38485718 317.67092896 C-306.36953713 301.63141443 -306.04047091 286.01795 -303.1328125 270.203125 C-302.96120605 269.20812988 -302.78959961 268.21313477 -302.61279297 267.18798828 C-294.70678279 221.79378329 -278.02644232 176.87294796 -251.1328125 139.203125 C-250.63555664 138.50509766 -250.13830078 137.80707031 -249.62597656 137.08789062 C-241.94374927 126.351608 -233.97861064 116.00515029 -225.1328125 106.203125 C-224.59188965 105.60048828 -224.0509668 104.99785156 -223.49365234 104.37695312 C-211.39041464 90.95761487 -198.52408508 78.53187863 -184.06835938 67.66308594 C-181.96874698 66.07937225 -179.88755595 64.47284642 -177.8046875 62.8671875 C-166.13199424 53.9684609 -153.92459427 46.38198646 -141.1328125 39.203125 C-140.39353516 38.78192383 -139.65425781 38.36072266 -138.89257812 37.92675781 C-97.66823368 14.53801609 -47.47962106 0.21795562 0 0 Z " fill="#374151" transform="translate(306.1328125,0.796875)"/>
<path d="M0 0 C1.72597355 -0.00463742 3.45194609 -0.0096633 5.17791748 -0.01504517 C9.83701378 -0.02807657 14.49609575 -0.03459512 19.1552074 -0.03905582 C22.07220889 -0.04199977 24.98920657 -0.04610684 27.90620613 -0.05056 C37.05144844 -0.06420648 46.1966819 -0.07388874 55.34193367 -0.07776189 C65.86570412 -0.08224486 76.38934484 -0.09981589 86.91307586 -0.12876248 C95.07308064 -0.15042211 103.233049 -0.16046834 111.3930822 -0.16180301 C116.2558999 -0.16284736 121.11859517 -0.16867696 125.98138237 -0.18662262 C130.55581397 -0.20317909 135.13003202 -0.20522229 139.70448303 -0.19648361 C141.37490476 -0.19571746 143.04533835 -0.1999998 144.71573067 -0.20994186 C164.79675457 -0.32237643 177.01443401 4.42103475 191.69360352 18.16113281 C192.95732584 19.25275287 194.22732959 20.33718415 195.50610352 21.41113281 C199.22725676 24.5745488 202.60064984 28.03863985 206.00610352 31.53613281 C208.92386267 34.3860371 211.98774981 36.999691 215.11938477 39.61035156 C215.63887695 40.12210938 216.15836914 40.63386719 216.69360352 41.16113281 C216.69360352 41.82113281 216.69360352 42.48113281 216.69360352 43.16113281 C217.52891602 43.50144531 217.52891602 43.50144531 218.38110352 43.84863281 C223.31603156 46.64953792 226.40852233 50.29860087 228.18188477 55.73144531 C229.9138523 63.95498581 229.563557 71.60013439 225.29907227 78.93457031 C220.53924635 85.53578874 216.4085761 88.23068168 208.5009613 89.73748779 C203.96127097 90.42255088 199.45788302 90.51841696 194.87329102 90.57519531 C193.88861847 90.59456146 192.90394592 90.61392761 191.88943481 90.63388062 C188.78257574 90.69306918 185.67567837 90.73981617 182.56860352 90.78613281 C180.44619263 90.82436861 178.32379633 90.86342349 176.20141602 90.90332031 C171.03226541 90.99871986 165.86304234 91.08297166 160.69360352 91.16113281 C159.44481609 95.27601683 160.26613494 97.27949522 161.88110352 101.28613281 C166.63415667 113.75039808 169.3185081 126.82078283 169.69360352 140.16113281 C169.73356445 141.33933594 169.77352539 142.51753906 169.81469727 143.73144531 C170.11767267 160.80500026 167.80403559 179.1475867 161.69360352 195.16113281 C161.44223633 195.88816406 161.19086914 196.61519531 160.93188477 197.36425781 C157.84752633 205.7939071 153.1861207 213.42401988 148.69360352 221.16113281 C148.03360352 221.16113281 147.37360352 221.16113281 146.69360352 221.16113281 C146.45125977 221.87269531 146.20891602 222.58425781 145.95922852 223.31738281 C142.5994482 230.86651883 136.18445956 237.17977817 129.69360352 242.16113281 C129.07743164 242.79019531 128.46125977 243.41925781 127.82641602 244.06738281 C125.63470006 246.21895745 123.39107037 247.95677425 120.88110352 249.72363281 C120.0702832 250.30242187 119.25946289 250.88121094 118.42407227 251.47753906 C115.69360352 253.16113281 115.69360352 253.16113281 108.69360352 256.16113281 C108.36360352 306.32113281 108.03360352 356.48113281 107.69360352 408.16113281 C101.42360352 408.16113281 95.15360352 408.16113281 88.69360352 408.16113281 C84.19282089 403.66035019 84.19282089 403.66035019 83.53344727 398.74316406 C83.38141846 397.66784424 83.22938965 396.59252441 83.07275391 395.48461914 C82.85413696 393.74668091 82.85413696 393.74668091 82.63110352 391.97363281 C82.46537842 390.75893311 82.29965332 389.5442334 82.12890625 388.29272461 C81.62980514 384.58453105 81.15670055 380.87398046 80.69360352 377.16113281 C80.50266113 375.64132812 80.50266113 375.64132812 80.30786133 374.09082031 C79.69741735 369.18050928 79.1136781 364.26741505 78.54125977 359.35253906 C76.20319491 339.35295825 73.78009903 319.34660517 70.94360352 299.41113281 C70.82823242 298.59741211 70.71286133 297.78369141 70.59399414 296.9453125 C70.0273368 293.03085529 70.0273368 293.03085529 69.17504883 289.171875 C68.22783077 285.21584665 68.28646254 281.0595839 68.08813477 277.00488281 C67.90373377 273.59664375 67.59235625 270.45049505 66.69360352 267.16113281 C65.22721436 267.16898804 65.22721436 267.16898804 63.73120117 267.17700195 C60.05966123 267.19527782 56.38812519 267.2066463 52.71655273 267.21606445 C51.13581666 267.22105354 49.5550851 267.22784719 47.97436523 267.23657227 C39.4744162 267.28227092 31.14250836 267.23629405 22.69360352 266.16113281 C22.9622522 267.06581299 22.9622522 267.06581299 23.23632812 267.98876953 C23.72404285 269.63196743 24.21096469 271.2754007 24.69750977 272.91894531 C25.42394255 275.28341282 26.17908584 277.62359604 26.97094727 279.96582031 C29.68201417 288.08327045 31.53306796 295.52925942 31.69360352 304.16113281 C31.72067383 305.010625 31.74774414 305.86011719 31.77563477 306.73535156 C31.81849535 309.21736919 31.77603705 311.68027605 31.69360352 314.16113281 C31.6684668 315.38316406 31.6684668 315.38316406 31.64282227 316.62988281 C30.89118744 330.88946925 25.29406745 345.62025134 18.69360352 358.16113281 C18.03360352 358.16113281 17.37360352 358.16113281 16.69360352 358.16113281 C16.35329102 359.21300781 16.35329102 359.21300781 16.00610352 360.28613281 C14.35519064 363.90241816 12.40272001 366.24883258 9.69360352 369.16113281 C9.03360352 369.16113281 8.37360352 369.16113281 7.69360352 369.16113281 C7.35329102 370.01964844 7.35329102 370.01964844 7.00610352 370.89550781 C5.33368106 373.78242752 3.31220167 375.35583775 0.69360352 377.41113281 C-0.63670898 378.47074219 -0.63670898 378.47074219 -1.99389648 379.55175781 C-4.30639648 381.16113281 -4.30639648 381.16113281 -6.30639648 381.16113281 C-6.30639648 381.82113281 -6.30639648 382.48113281 -6.30639648 383.16113281 C-7.29639648 383.49113281 -8.28639648 383.82113281 -9.30639648 384.16113281 C-8.14068115 384.17047852 -6.97496582 384.17982422 -5.77392578 384.18945312 C-1.45175869 384.22930463 2.86969294 384.29504929 7.19140625 384.36865234 C9.06240656 384.39689018 10.93352678 384.41809071 12.8046875 384.43212891 C15.49354572 384.45351998 18.1809579 384.50014826 20.86938477 384.55175781 C22.12577507 384.55360077 22.12577507 384.55360077 23.407547 384.55548096 C29.18395652 384.70140126 29.18395652 384.70140126 31.74511719 387.01171875 C32.69360352 389.16113281 32.69360352 389.16113281 32.69360352 392.16113281 C33.35360352 392.16113281 34.01360352 392.16113281 34.69360352 392.16113281 C36.07484315 394.1283529 37.40848478 396.1298161 38.69360352 398.16113281 C39.02360352 398.49113281 39.35360352 398.82113281 39.69360352 399.16113281 C40.00142503 402.00848184 39.91475553 403.72452988 38.6119709 406.29651451 C35.77872086 409.05038216 33.65252406 408.66996828 29.74972534 408.68252563 C29.0388905 408.69017673 28.32805565 408.69782782 27.59568036 408.70571077 C25.20728716 408.72639306 22.81985365 408.71838346 20.43139648 408.71044922 C18.72143155 408.71914147 17.01147443 408.72950711 15.30152893 408.74142456 C10.65033678 408.7682592 5.99946913 408.76935528 1.34821463 408.76429796 C-2.5356823 408.76216073 -6.41951328 408.77192038 -10.30339611 408.7815088 C-19.47111287 408.80372117 -28.6386658 408.8045637 -37.80639648 408.79248047 C-47.25581224 408.7804169 -56.70463118 408.80497634 -66.15394509 408.84762061 C-74.26961659 408.88289609 -82.38509857 408.89484797 -90.50084388 408.88834512 C-95.34647252 408.88472361 -100.19167617 408.88994762 -105.03723526 408.9177742 C-109.59948821 408.94299093 -114.16081558 408.93898833 -118.72305489 408.91295242 C-120.39311477 408.90823336 -122.06324035 408.91364586 -123.73322487 408.93019867 C-132.87343165 409.01422581 -140.35741934 408.92460896 -147.30639648 402.16113281 C-151.0083717 397.83628558 -152.13489672 393.68557345 -152.93139648 388.16113281 C-153.03967773 387.4946875 -153.14795898 386.82824219 -153.25952148 386.14160156 C-153.49469049 384.66769351 -153.71577812 383.19150137 -153.92626953 381.71386719 C-154.19208744 379.92877277 -154.49342119 378.14876959 -154.82128906 376.37402344 C-156.89970935 364.21148497 -156.74528995 351.96684632 -156.74389648 339.66113281 C-156.74599625 337.89583725 -156.74599625 337.89583725 -156.74813843 336.09487915 C-156.73007248 317.63101068 -155.80648037 300.12973292 -151.30639648 282.16113281 C-151.10884766 281.35192383 -150.91129883 280.54271484 -150.70776367 279.70898438 C-149.52966045 275.06778672 -148.03385597 270.63275819 -146.30639648 266.16113281 C-146.02425293 265.41895508 -145.74210938 264.67677734 -145.45141602 263.91210938 C-139.96863922 249.64934326 -133.08936054 236.90697954 -123.86889648 224.72363281 C-123.44366699 224.16111816 -123.0184375 223.59860352 -122.58032227 223.01904297 C-121.54024599 221.69129497 -120.4291609 220.41973262 -119.30639648 219.16113281 C-118.64639648 219.16113281 -117.98639648 219.16113281 -117.30639648 219.16113281 C-117.10014648 218.43925781 -116.89389648 217.71738281 -116.68139648 216.97363281 C-115.20607464 213.95592903 -113.52146878 212.51177078 -110.88452148 210.48925781 C-109.24482169 209.10931244 -108.04572798 207.67095742 -106.74389648 205.97363281 C-104.29705802 203.15035766 -102.83962898 202.17062781 -99.30639648 201.16113281 C-99.30639648 200.50113281 -99.30639648 199.84113281 -99.30639648 199.16113281 C-98.64639648 199.16113281 -97.98639648 199.16113281 -97.30639648 199.16113281 C-96.97639648 198.17113281 -96.64639648 197.18113281 -96.30639648 196.16113281 C-93.24389648 194.97363281 -93.24389648 194.97363281 -90.30639648 194.16113281 C-90.30639648 193.50113281 -90.30639648 192.84113281 -90.30639648 192.16113281 C-88.18851459 190.65481568 -86.07923228 189.26959202 -83.86889648 187.91113281 C-82.66127792 187.15686398 -81.45425657 186.40163824 -80.24780273 185.64550781 C-79.61165039 185.25016846 -78.97549805 184.8548291 -78.32006836 184.44750977 C-76.17567052 183.07762225 -74.09148748 181.63450306 -71.99780273 180.18847656 C-67.1232862 176.9235438 -61.99925768 174.42950387 -56.68139648 171.97363281 C-55.77905273 171.54888672 -54.87670898 171.12414062 -53.94702148 170.68652344 C-50.11682476 168.89146768 -46.27851149 167.13003495 -42.38452148 165.47753906 C-40.07724526 164.49079783 -37.8883075 163.46803302 -35.68139648 162.28613281 C-31.07066652 159.93591637 -26.25016885 158.20441655 -21.41186523 156.38378906 C-18.24134274 155.13552046 -15.26895449 153.70138858 -12.25561523 152.12207031 C-10.0234369 151.02163771 -7.75170642 150.12297775 -5.43139648 149.22363281 C-1.0876095 147.52882191 3.03803199 145.55627645 7.17407227 143.40722656 C9.09648502 142.45645188 11.06148875 141.59131364 13.04125977 140.76660156 C16.85515623 139.09011873 20.36358087 137.15160074 23.94360352 135.03613281 C30.30930599 131.28923199 30.30930599 131.28923199 33.69360352 130.16113281 C33.69360352 129.50113281 33.69360352 128.84113281 33.69360352 128.16113281 C34.74547852 127.60425781 35.79735352 127.04738281 36.88110352 126.47363281 C41.29659457 123.93030996 44.37409261 120.68010467 47.70922852 116.84082031 C48.42594727 116.01839844 49.14266602 115.19597656 49.88110352 114.34863281 C50.5552832 113.5584375 51.22946289 112.76824219 51.92407227 111.95410156 C52.50801758 111.36242187 53.09196289 110.77074219 53.69360352 110.16113281 C54.35360352 110.16113281 55.01360352 110.16113281 55.69360352 110.16113281 C55.69360352 109.17113281 55.69360352 108.18113281 55.69360352 107.16113281 C56.35360352 107.16113281 57.01360352 107.16113281 57.69360352 107.16113281 C57.69360352 106.50113281 57.69360352 105.84113281 57.69360352 105.16113281 C58.35360352 105.16113281 59.01360352 105.16113281 59.69360352 105.16113281 C60.02360352 103.51113281 60.35360352 101.86113281 60.69360352 100.16113281 C61.35360352 100.16113281 62.01360352 100.16113281 62.69360352 100.16113281 C62.69360352 99.17113281 62.69360352 98.18113281 62.69360352 97.16113281 C63.35360352 97.16113281 64.01360352 97.16113281 64.69360352 97.16113281 C64.78254883 96.48953125 64.87149414 95.81792969 64.96313477 95.12597656 C65.89151948 91.35782684 67.59132476 88.13707313 69.38110352 84.72363281 C77.17274922 69.46630064 84.60870212 53.12809049 87.69360352 36.16113281 C83.15945352 36.77432262 79.50485192 38.62459902 75.50610352 40.72363281 C62.56740208 47.33383446 49.69216688 53.16921513 35.69360352 57.16113281 C33.43947126 57.87742313 31.18927437 58.60624045 28.94360352 59.34863281 C27.95875977 59.6721875 26.97391602 59.99574219 25.95922852 60.32910156 C23.75679163 60.95794423 23.75679163 60.95794423 22.69360352 62.16113281 C20.47150372 62.63321626 18.24030433 63.06261334 16.00610352 63.47363281 C10.72686999 64.47567438 5.60150418 65.6928273 0.44360352 67.22363281 C-15.85836298 71.99582859 -32.40313882 72.53222519 -49.30639648 72.16113281 C-50.99055664 72.15339844 -50.99055664 72.15339844 -52.70874023 72.14550781 C-62.21001692 71.82917518 -71.14538032 68.6239093 -78.30639648 62.16113281 C-81.14910812 55.7137456 -79.22352114 45.10880365 -77.19311523 38.58300781 C-75.99420203 35.7112747 -74.72237689 32.93133747 -73.30639648 30.16113281 C-72.92354492 29.39285156 -72.54069336 28.62457031 -72.14624023 27.83300781 C-71.73051758 27.00542969 -71.73051758 27.00542969 -71.30639648 26.16113281 C-70.64639648 26.16113281 -69.98639648 26.16113281 -69.30639648 26.16113281 C-69.07178711 25.42507812 -68.83717773 24.68902344 -68.59545898 23.93066406 C-63.97755227 14.00916144 -49.98927649 8.09804651 -40.30639648 4.16113281 C-27.26833158 -0.29276879 -13.61377083 0.00858793 0 0 Z " fill="#6A717F" transform="translate(287.306396484375,116.8388671875)"/>
<path d="M0 0 C0.66 0.33 1.32 0.66 2 1 C-9.22 12.22 -20.44 23.44 -32 35 C-32 32 -32 32 -30.71484375 30.45703125 C-30.12832031 29.91433594 -29.54179688 29.37164062 -28.9375 28.8125 C-26.33547993 26.32542861 -23.90074268 23.79942922 -21.5625 21.0625 C-16.05001624 14.68869066 -10.06089704 8.92467276 -3.6640625 3.4453125 C-2.39833536 2.34597202 -1.1854566 1.1854566 0 0 Z " fill="#575F6E" transform="translate(110,78)"/>
</svg>
