<?xml version="1.0" encoding="UTF-8"?>
<svg xmlns="http://www.w3.org/2000/svg" xmlns:xlink="http://www.w3.org/1999/xlink" width="16px" height="16px" viewBox="0 0 16 16" version="1.1">
<g id="surface1">
<path style=" stroke:none;fill-rule:nonzero;fill:rgb(21.568628%,25.490198%,31.764707%);fill-opacity:1;" d="M 7.652344 0.0195312 C 7.691406 0.0195312 7.691406 0.0195312 7.730469 0.0195312 C 7.8125 0.0195312 7.894531 0.0195312 7.976562 0.0195312 C 8.007812 0.0195312 8.035156 0.0195312 8.0625 0.0195312 C 8.464844 0.0195312 8.855469 0.0273438 9.25 0.101562 C 9.273438 0.105469 9.300781 0.109375 9.324219 0.113281 C 10.460938 0.3125 11.582031 0.726562 12.523438 1.398438 C 12.542969 1.414062 12.558594 1.425781 12.578125 1.4375 C 12.847656 1.628906 13.105469 1.828125 13.351562 2.050781 C 13.371094 2.070312 13.371094 2.070312 13.394531 2.089844 C 13.730469 2.394531 14.042969 2.714844 14.3125 3.078125 C 14.351562 3.128906 14.394531 3.179688 14.433594 3.234375 C 14.65625 3.523438 14.84375 3.832031 15.023438 4.148438 C 15.035156 4.167969 15.046875 4.1875 15.058594 4.207031 C 15.640625 5.238281 16 6.492188 16.003906 7.679688 C 16.003906 7.703125 16.003906 7.730469 16.003906 7.757812 C 16.007812 7.839844 16.007812 7.921875 16.007812 8.003906 C 16.007812 8.046875 16.007812 8.046875 16.007812 8.089844 C 16.007812 8.488281 15.996094 8.878906 15.925781 9.273438 C 15.921875 9.300781 15.917969 9.324219 15.910156 9.351562 C 15.714844 10.484375 15.296875 11.609375 14.625 12.550781 C 14.613281 12.566406 14.601562 12.585938 14.585938 12.601562 C 14.394531 12.871094 14.195312 13.128906 13.976562 13.375 C 13.953125 13.398438 13.953125 13.398438 13.933594 13.421875 C 13.632812 13.757812 13.308594 14.066406 12.949219 14.339844 C 12.894531 14.378906 12.84375 14.417969 12.792969 14.457031 C 12.5 14.679688 12.195312 14.871094 11.875 15.050781 C 11.84375 15.066406 11.8125 15.085938 11.78125 15.105469 C 10.664062 15.726562 9.394531 16.019531 8.125 16.015625 C 8.046875 16.015625 7.96875 16.015625 7.890625 16.015625 C 7.226562 16.019531 6.585938 15.964844 5.941406 15.78125 C 5.910156 15.773438 5.878906 15.765625 5.847656 15.753906 C 5.007812 15.515625 4.1875 15.160156 3.476562 14.648438 C 3.457031 14.636719 3.441406 14.625 3.421875 14.613281 C 3.152344 14.421875 2.894531 14.222656 2.648438 14 C 2.628906 13.980469 2.628906 13.980469 2.605469 13.960938 C 2.269531 13.65625 1.957031 13.335938 1.6875 12.972656 C 1.648438 12.921875 1.605469 12.867188 1.566406 12.816406 C 1.34375 12.523438 1.15625 12.21875 0.976562 11.898438 C 0.964844 11.882812 0.953125 11.863281 0.941406 11.84375 C 0.359375 10.8125 0 9.558594 -0.00390625 8.371094 C -0.00390625 8.347656 -0.00390625 8.320312 -0.00390625 8.292969 C -0.0078125 8.210938 -0.0078125 8.128906 -0.0078125 8.046875 C -0.0078125 8.019531 -0.0078125 7.992188 -0.0078125 7.960938 C -0.0078125 7.5625 0.00390625 7.171875 0.0742188 6.773438 C 0.078125 6.75 0.0820312 6.726562 0.0898438 6.699219 C 0.285156 5.566406 0.703125 4.441406 1.375 3.5 C 1.386719 3.484375 1.398438 3.464844 1.414062 3.445312 C 1.605469 3.179688 1.804688 2.921875 2.023438 2.675781 C 2.039062 2.660156 2.050781 2.644531 2.066406 2.628906 C 2.367188 2.292969 2.691406 1.984375 3.050781 1.710938 C 3.105469 1.671875 3.15625 1.632812 3.207031 1.589844 C 3.5 1.367188 3.804688 1.179688 4.125 1 C 4.144531 0.988281 4.160156 0.980469 4.179688 0.96875 C 5.210938 0.382812 6.464844 0.0234375 7.652344 0.0195312 Z M 7.652344 0.0195312 "/>
<path style=" stroke:none;fill-rule:nonzero;fill:rgb(41.568628%,44.313726%,49.803922%);fill-opacity:1;" d="M 7.183594 2.921875 C 7.226562 2.921875 7.269531 2.921875 7.3125 2.921875 C 7.429688 2.921875 7.546875 2.921875 7.660156 2.921875 C 7.734375 2.917969 7.808594 2.917969 7.878906 2.917969 C 8.109375 2.917969 8.335938 2.917969 8.566406 2.917969 C 8.828125 2.917969 9.09375 2.917969 9.355469 2.917969 C 9.558594 2.917969 9.761719 2.917969 9.96875 2.917969 C 10.089844 2.917969 10.210938 2.917969 10.332031 2.917969 C 10.445312 2.914062 10.5625 2.914062 10.675781 2.917969 C 10.71875 2.917969 10.757812 2.914062 10.800781 2.914062 C 11.300781 2.914062 11.609375 3.03125 11.976562 3.375 C 12.007812 3.402344 12.039062 3.429688 12.070312 3.457031 C 12.164062 3.535156 12.246094 3.621094 12.332031 3.710938 C 12.40625 3.78125 12.480469 3.847656 12.5625 3.910156 C 12.574219 3.925781 12.585938 3.9375 12.601562 3.949219 C 12.601562 3.964844 12.601562 3.984375 12.601562 4 C 12.621094 4.007812 12.621094 4.007812 12.640625 4.015625 C 12.765625 4.085938 12.84375 4.179688 12.886719 4.3125 C 12.929688 4.519531 12.921875 4.710938 12.816406 4.894531 C 12.695312 5.058594 12.59375 5.125 12.394531 5.164062 C 12.28125 5.179688 12.167969 5.183594 12.054688 5.183594 C 12.03125 5.1875 12.003906 5.1875 11.980469 5.1875 C 11.902344 5.1875 11.824219 5.191406 11.746094 5.191406 C 11.695312 5.191406 11.640625 5.191406 11.585938 5.195312 C 11.457031 5.195312 11.328125 5.199219 11.199219 5.199219 C 11.167969 5.304688 11.1875 5.351562 11.230469 5.453125 C 11.347656 5.765625 11.414062 6.089844 11.425781 6.425781 C 11.425781 6.453125 11.425781 6.484375 11.429688 6.515625 C 11.4375 6.941406 11.378906 7.398438 11.226562 7.800781 C 11.21875 7.816406 11.210938 7.835938 11.207031 7.855469 C 11.128906 8.066406 11.011719 8.257812 10.898438 8.449219 C 10.882812 8.449219 10.867188 8.449219 10.851562 8.449219 C 10.84375 8.46875 10.835938 8.484375 10.832031 8.503906 C 10.746094 8.691406 10.585938 8.851562 10.425781 8.976562 C 10.410156 8.992188 10.394531 9.007812 10.378906 9.023438 C 10.324219 9.078125 10.265625 9.121094 10.203125 9.164062 C 10.183594 9.179688 10.164062 9.191406 10.144531 9.207031 C 10.074219 9.25 10.074219 9.25 9.898438 9.324219 C 9.890625 10.578125 9.882812 11.832031 9.875 13.125 C 9.71875 13.125 9.5625 13.125 9.398438 13.125 C 9.289062 13.011719 9.289062 13.011719 9.269531 12.890625 C 9.265625 12.863281 9.261719 12.835938 9.257812 12.808594 C 9.253906 12.765625 9.253906 12.765625 9.25 12.71875 C 9.246094 12.691406 9.238281 12.660156 9.234375 12.628906 C 9.222656 12.535156 9.210938 12.441406 9.199219 12.351562 C 9.195312 12.3125 9.195312 12.3125 9.191406 12.273438 C 9.175781 12.152344 9.160156 12.027344 9.144531 11.90625 C 9.085938 11.40625 9.027344 10.90625 8.957031 10.40625 C 8.953125 10.386719 8.949219 10.367188 8.949219 10.34375 C 8.933594 10.246094 8.933594 10.246094 8.910156 10.148438 C 8.886719 10.050781 8.890625 9.949219 8.886719 9.847656 C 8.878906 9.761719 8.871094 9.683594 8.851562 9.601562 C 8.8125 9.601562 8.8125 9.601562 8.777344 9.601562 C 8.683594 9.601562 8.59375 9.601562 8.5 9.601562 C 8.460938 9.601562 8.421875 9.601562 8.382812 9.601562 C 8.167969 9.601562 7.960938 9.601562 7.75 9.574219 C 7.757812 9.597656 7.757812 9.597656 7.761719 9.621094 C 7.777344 9.660156 7.789062 9.703125 7.800781 9.742188 C 7.816406 9.804688 7.835938 9.863281 7.855469 9.921875 C 7.925781 10.125 7.972656 10.308594 7.976562 10.523438 C 7.976562 10.546875 7.976562 10.566406 7.976562 10.589844 C 7.976562 10.652344 7.976562 10.714844 7.976562 10.773438 C 7.972656 10.804688 7.972656 10.804688 7.972656 10.835938 C 7.953125 11.191406 7.816406 11.5625 7.648438 11.875 C 7.632812 11.875 7.617188 11.875 7.601562 11.875 C 7.589844 11.902344 7.589844 11.902344 7.582031 11.929688 C 7.542969 12.019531 7.492188 12.078125 7.425781 12.148438 C 7.410156 12.148438 7.390625 12.148438 7.375 12.148438 C 7.367188 12.171875 7.367188 12.171875 7.359375 12.191406 C 7.316406 12.265625 7.265625 12.304688 7.199219 12.355469 C 7.167969 12.382812 7.167969 12.382812 7.132812 12.410156 C 7.074219 12.449219 7.074219 12.449219 7.023438 12.449219 C 7.023438 12.464844 7.023438 12.484375 7.023438 12.5 C 7 12.507812 6.976562 12.515625 6.949219 12.523438 C 6.980469 12.523438 7.007812 12.527344 7.039062 12.527344 C 7.144531 12.527344 7.253906 12.527344 7.363281 12.53125 C 7.410156 12.53125 7.457031 12.53125 7.503906 12.53125 C 7.570312 12.53125 7.636719 12.535156 7.703125 12.535156 C 7.734375 12.535156 7.734375 12.535156 7.769531 12.535156 C 7.914062 12.539062 7.914062 12.539062 7.976562 12.597656 C 8 12.648438 8 12.648438 8 12.726562 C 8.015625 12.726562 8.03125 12.726562 8.050781 12.726562 C 8.085938 12.773438 8.117188 12.824219 8.148438 12.875 C 8.160156 12.882812 8.167969 12.890625 8.175781 12.898438 C 8.183594 12.972656 8.179688 13.015625 8.148438 13.078125 C 8.078125 13.148438 8.023438 13.136719 7.925781 13.136719 C 7.910156 13.136719 7.890625 13.136719 7.871094 13.136719 C 7.8125 13.140625 7.753906 13.140625 7.695312 13.140625 C 7.652344 13.140625 7.609375 13.140625 7.566406 13.140625 C 7.449219 13.140625 7.332031 13.140625 7.214844 13.140625 C 7.121094 13.140625 7.023438 13.140625 6.925781 13.140625 C 6.695312 13.140625 6.464844 13.140625 6.238281 13.140625 C 6 13.140625 5.765625 13.140625 5.527344 13.140625 C 5.324219 13.144531 5.121094 13.144531 4.921875 13.144531 C 4.800781 13.144531 4.679688 13.144531 4.558594 13.144531 C 4.441406 13.144531 4.328125 13.144531 4.214844 13.144531 C 4.171875 13.144531 4.132812 13.144531 4.089844 13.144531 C 3.859375 13.144531 3.671875 13.144531 3.5 12.976562 C 3.40625 12.867188 3.378906 12.761719 3.359375 12.625 C 3.355469 12.609375 3.355469 12.589844 3.351562 12.574219 C 3.34375 12.539062 3.339844 12.5 3.335938 12.464844 C 3.328125 12.417969 3.320312 12.375 3.3125 12.332031 C 3.261719 12.027344 3.265625 11.71875 3.265625 11.414062 C 3.265625 11.367188 3.265625 11.367188 3.265625 11.324219 C 3.265625 10.863281 3.289062 10.425781 3.398438 9.976562 C 3.40625 9.953125 3.410156 9.933594 3.414062 9.914062 C 3.445312 9.796875 3.480469 9.6875 3.523438 9.574219 C 3.53125 9.554688 3.539062 9.539062 3.546875 9.519531 C 3.683594 9.164062 3.855469 8.84375 4.085938 8.539062 C 4.097656 8.523438 4.105469 8.511719 4.117188 8.496094 C 4.144531 8.464844 4.171875 8.429688 4.199219 8.398438 C 4.214844 8.398438 4.234375 8.398438 4.25 8.398438 C 4.253906 8.382812 4.261719 8.363281 4.265625 8.34375 C 4.300781 8.269531 4.34375 8.234375 4.410156 8.183594 C 4.453125 8.148438 4.480469 8.113281 4.515625 8.070312 C 4.574219 8 4.613281 7.976562 4.699219 7.949219 C 4.699219 7.933594 4.699219 7.917969 4.699219 7.898438 C 4.714844 7.898438 4.734375 7.898438 4.75 7.898438 C 4.757812 7.875 4.765625 7.851562 4.773438 7.824219 C 4.851562 7.796875 4.851562 7.796875 4.925781 7.773438 C 4.925781 7.757812 4.925781 7.742188 4.925781 7.726562 C 4.976562 7.6875 5.03125 7.652344 5.085938 7.617188 C 5.117188 7.601562 5.144531 7.582031 5.175781 7.5625 C 5.191406 7.550781 5.207031 7.542969 5.226562 7.53125 C 5.277344 7.496094 5.332031 7.460938 5.382812 7.425781 C 5.503906 7.34375 5.632812 7.28125 5.765625 7.21875 C 5.789062 7.210938 5.8125 7.199219 5.835938 7.1875 C 5.929688 7.144531 6.027344 7.097656 6.125 7.058594 C 6.179688 7.035156 6.234375 7.007812 6.289062 6.976562 C 6.40625 6.917969 6.527344 6.875 6.648438 6.832031 C 6.726562 6.800781 6.800781 6.761719 6.875 6.722656 C 6.933594 6.695312 6.988281 6.675781 7.046875 6.652344 C 7.15625 6.609375 7.257812 6.558594 7.363281 6.507812 C 7.410156 6.480469 7.460938 6.460938 7.507812 6.441406 C 7.605469 6.398438 7.691406 6.351562 7.78125 6.296875 C 7.941406 6.203125 7.941406 6.203125 8.023438 6.175781 C 8.023438 6.160156 8.023438 6.140625 8.023438 6.125 C 8.050781 6.109375 8.078125 6.097656 8.105469 6.082031 C 8.214844 6.019531 8.292969 5.9375 8.375 5.84375 C 8.394531 5.820312 8.410156 5.800781 8.429688 5.78125 C 8.445312 5.761719 8.464844 5.738281 8.480469 5.71875 C 8.496094 5.703125 8.511719 5.691406 8.523438 5.675781 C 8.542969 5.675781 8.558594 5.675781 8.574219 5.675781 C 8.574219 5.648438 8.574219 5.625 8.574219 5.601562 C 8.589844 5.601562 8.609375 5.601562 8.625 5.601562 C 8.625 5.582031 8.625 5.566406 8.625 5.550781 C 8.640625 5.550781 8.65625 5.550781 8.675781 5.550781 C 8.683594 5.507812 8.691406 5.46875 8.699219 5.425781 C 8.714844 5.425781 8.734375 5.425781 8.75 5.425781 C 8.75 5.398438 8.75 5.375 8.75 5.351562 C 8.765625 5.351562 8.78125 5.351562 8.800781 5.351562 C 8.800781 5.332031 8.804688 5.316406 8.808594 5.300781 C 8.828125 5.203125 8.871094 5.125 8.917969 5.039062 C 9.113281 4.65625 9.296875 4.25 9.375 3.824219 C 9.261719 3.839844 9.171875 3.886719 9.070312 3.9375 C 8.746094 4.105469 8.425781 4.25 8.074219 4.351562 C 8.019531 4.367188 7.960938 4.386719 7.90625 4.40625 C 7.882812 4.414062 7.855469 4.421875 7.832031 4.429688 C 7.777344 4.445312 7.777344 4.445312 7.75 4.476562 C 7.695312 4.488281 7.636719 4.496094 7.582031 4.507812 C 7.449219 4.53125 7.324219 4.5625 7.195312 4.601562 C 6.785156 4.722656 6.371094 4.734375 5.949219 4.726562 C 5.90625 4.726562 5.90625 4.726562 5.863281 4.722656 C 5.628906 4.714844 5.402344 4.636719 5.226562 4.476562 C 5.152344 4.3125 5.203125 4.046875 5.253906 3.886719 C 5.28125 3.8125 5.316406 3.746094 5.351562 3.675781 C 5.359375 3.65625 5.371094 3.636719 5.378906 3.617188 C 5.390625 3.597656 5.390625 3.597656 5.398438 3.574219 C 5.417969 3.574219 5.433594 3.574219 5.449219 3.574219 C 5.457031 3.554688 5.460938 3.539062 5.46875 3.519531 C 5.582031 3.269531 5.933594 3.125 6.175781 3.023438 C 6.5 2.914062 6.84375 2.921875 7.183594 2.921875 Z M 7.183594 2.921875 "/>
<path style=" stroke:none;fill-rule:nonzero;fill:rgb(34.117648%,37.254903%,43.137255%);fill-opacity:1;" d="M 2.75 1.949219 C 2.765625 1.957031 2.78125 1.964844 2.800781 1.976562 C 2.519531 2.253906 2.238281 2.535156 1.949219 2.824219 C 1.949219 2.75 1.949219 2.75 1.980469 2.710938 C 1.996094 2.699219 2.011719 2.683594 2.027344 2.671875 C 2.089844 2.609375 2.152344 2.546875 2.210938 2.476562 C 2.347656 2.316406 2.5 2.171875 2.660156 2.035156 C 2.691406 2.007812 2.71875 1.980469 2.75 1.949219 Z M 2.75 1.949219 "/>
</g>
</svg>
