<?xml version="1.0" encoding="UTF-8"?>
<svg xmlns="http://www.w3.org/2000/svg" xmlns:xlink="http://www.w3.org/1999/xlink" width="16px" height="16px" viewBox="0 0 16 16" version="1.1">
<g id="surface1">
<path style=" stroke:none;fill-rule:nonzero;fill:rgb(89.411765%,90.196079%,91.764706%);fill-opacity:1;" d="M 7.652344 0.0195312 C 7.691406 0.0195312 7.691406 0.0195312 7.730469 0.0195312 C 7.8125 0.0195312 7.894531 0.0195312 7.976562 0.0195312 C 8.007812 0.0195312 8.035156 0.0195312 8.0625 0.0195312 C 8.464844 0.0195312 8.855469 0.0273438 9.25 0.101562 C 9.273438 0.105469 9.300781 0.109375 9.324219 0.113281 C 10.460938 0.3125 11.582031 0.726562 12.523438 1.398438 C 12.542969 1.414062 12.558594 1.425781 12.578125 1.4375 C 12.847656 1.628906 13.105469 1.828125 13.351562 2.050781 C 13.371094 2.070312 13.371094 2.070312 13.394531 2.089844 C 13.730469 2.394531 14.042969 2.714844 14.3125 3.078125 C 14.351562 3.128906 14.394531 3.179688 14.433594 3.234375 C 14.65625 3.523438 14.84375 3.832031 15.023438 4.148438 C 15.035156 4.167969 15.046875 4.1875 15.058594 4.207031 C 15.640625 5.238281 16 6.492188 16.003906 7.679688 C 16.003906 7.703125 16.003906 7.730469 16.003906 7.757812 C 16.007812 7.839844 16.007812 7.921875 16.007812 8.003906 C 16.007812 8.046875 16.007812 8.046875 16.007812 8.089844 C 16.007812 8.488281 15.996094 8.878906 15.925781 9.273438 C 15.921875 9.300781 15.917969 9.324219 15.910156 9.351562 C 15.714844 10.484375 15.296875 11.609375 14.625 12.550781 C 14.613281 12.566406 14.601562 12.585938 14.585938 12.601562 C 14.394531 12.871094 14.195312 13.128906 13.976562 13.375 C 13.953125 13.398438 13.953125 13.398438 13.933594 13.421875 C 13.632812 13.757812 13.308594 14.066406 12.949219 14.339844 C 12.894531 14.378906 12.84375 14.417969 12.792969 14.457031 C 12.5 14.679688 12.195312 14.871094 11.875 15.050781 C 11.84375 15.066406 11.8125 15.085938 11.78125 15.105469 C 10.664062 15.726562 9.394531 16.019531 8.125 16.015625 C 8.046875 16.015625 7.96875 16.015625 7.890625 16.015625 C 7.226562 16.019531 6.585938 15.964844 5.941406 15.78125 C 5.910156 15.773438 5.878906 15.765625 5.847656 15.753906 C 5.007812 15.515625 4.1875 15.160156 3.476562 14.648438 C 3.457031 14.636719 3.441406 14.625 3.421875 14.613281 C 3.152344 14.421875 2.894531 14.222656 2.648438 14 C 2.628906 13.980469 2.628906 13.980469 2.605469 13.960938 C 2.269531 13.65625 1.957031 13.335938 1.6875 12.972656 C 1.648438 12.921875 1.605469 12.867188 1.566406 12.816406 C 1.34375 12.523438 1.15625 12.21875 0.976562 11.898438 C 0.964844 11.882812 0.953125 11.863281 0.941406 11.84375 C 0.359375 10.8125 0 9.558594 -0.00390625 8.371094 C -0.00390625 8.347656 -0.00390625 8.320312 -0.00390625 8.292969 C -0.0078125 8.210938 -0.0078125 8.128906 -0.0078125 8.046875 C -0.0078125 8.019531 -0.0078125 7.992188 -0.0078125 7.960938 C -0.0078125 7.5625 0.00390625 7.171875 0.0742188 6.773438 C 0.078125 6.75 0.0820312 6.726562 0.0898438 6.699219 C 0.285156 5.566406 0.703125 4.441406 1.375 3.5 C 1.386719 3.484375 1.398438 3.464844 1.414062 3.445312 C 1.605469 3.179688 1.804688 2.921875 2.023438 2.675781 C 2.039062 2.660156 2.050781 2.644531 2.066406 2.628906 C 2.367188 2.292969 2.691406 1.984375 3.050781 1.710938 C 3.105469 1.671875 3.15625 1.632812 3.207031 1.589844 C 3.5 1.367188 3.804688 1.179688 4.125 1 C 4.144531 0.988281 4.160156 0.980469 4.179688 0.96875 C 5.210938 0.382812 6.464844 0.0234375 7.652344 0.0195312 Z M 7.652344 0.0195312 "/>
<path style=" stroke:none;fill-rule:nonzero;fill:rgb(41.960785%,44.705883%,50.196081%);fill-opacity:1;" d="M 7.183594 2.921875 C 7.226562 2.921875 7.269531 2.921875 7.3125 2.921875 C 7.429688 2.921875 7.546875 2.921875 7.660156 2.921875 C 7.734375 2.917969 7.808594 2.917969 7.878906 2.917969 C 8.109375 2.917969 8.335938 2.917969 8.566406 2.917969 C 8.828125 2.917969 9.09375 2.917969 9.355469 2.917969 C 9.558594 2.917969 9.761719 2.917969 9.96875 2.917969 C 10.089844 2.917969 10.210938 2.917969 10.332031 2.917969 C 10.445312 2.914062 10.5625 2.914062 10.675781 2.917969 C 10.71875 2.917969 10.757812 2.914062 10.800781 2.914062 C 11.296875 2.914062 11.621094 3.03125 11.980469 3.378906 C 11.996094 3.394531 12.007812 3.410156 12.023438 3.425781 C 12.121094 3.523438 12.222656 3.617188 12.332031 3.707031 C 12.34375 3.71875 12.359375 3.734375 12.375 3.75 C 12.375 3.765625 12.375 3.78125 12.375 3.800781 C 12.390625 3.800781 12.40625 3.800781 12.425781 3.800781 C 12.425781 3.816406 12.425781 3.832031 12.425781 3.851562 C 12.445312 3.855469 12.464844 3.863281 12.484375 3.867188 C 12.5625 3.90625 12.566406 3.925781 12.601562 4 C 12.648438 4.027344 12.648438 4.027344 12.699219 4.050781 C 12.820312 4.128906 12.855469 4.242188 12.898438 4.375 C 12.933594 4.589844 12.902344 4.773438 12.773438 4.949219 C 12.625 5.109375 12.480469 5.167969 12.265625 5.179688 C 12.199219 5.179688 12.128906 5.183594 12.0625 5.183594 C 12.035156 5.183594 12.011719 5.183594 11.988281 5.183594 C 11.910156 5.1875 11.828125 5.1875 11.75 5.1875 C 11.699219 5.191406 11.644531 5.191406 11.589844 5.191406 C 11.460938 5.195312 11.332031 5.199219 11.199219 5.199219 C 11.167969 5.304688 11.191406 5.363281 11.230469 5.46875 C 11.339844 5.78125 11.414062 6.09375 11.425781 6.425781 C 11.425781 6.453125 11.425781 6.484375 11.429688 6.515625 C 11.441406 7.238281 11.253906 8 10.800781 8.574219 C 10.773438 8.613281 10.773438 8.613281 10.742188 8.648438 C 10.53125 8.917969 10.261719 9.160156 9.949219 9.300781 C 9.925781 9.300781 9.902344 9.300781 9.875 9.300781 C 9.875 9.328125 9.875 9.328125 9.875 9.359375 C 9.875 9.835938 9.875 10.308594 9.875 10.785156 C 9.875 11.015625 9.875 11.246094 9.875 11.472656 C 9.878906 11.675781 9.878906 11.875 9.878906 12.074219 C 9.878906 12.179688 9.878906 12.289062 9.878906 12.394531 C 9.878906 12.492188 9.878906 12.59375 9.878906 12.691406 C 9.878906 12.730469 9.878906 12.765625 9.878906 12.804688 C 9.878906 12.851562 9.878906 12.902344 9.878906 12.953125 C 9.878906 12.996094 9.878906 12.996094 9.878906 13.039062 C 9.875 13.101562 9.875 13.101562 9.851562 13.125 C 9.777344 13.128906 9.703125 13.128906 9.628906 13.132812 C 9.597656 13.132812 9.597656 13.132812 9.566406 13.132812 C 9.546875 13.132812 9.527344 13.132812 9.503906 13.132812 C 9.488281 13.132812 9.46875 13.132812 9.449219 13.132812 C 9.386719 13.121094 9.363281 13.101562 9.324219 13.050781 C 9.308594 12.984375 9.296875 12.917969 9.285156 12.851562 C 9.28125 12.8125 9.273438 12.777344 9.269531 12.742188 C 9.265625 12.714844 9.265625 12.714844 9.261719 12.683594 C 9.25 12.621094 9.238281 12.5625 9.226562 12.5 C 9.195312 12.332031 9.175781 12.164062 9.160156 12 C 9.125 11.695312 9.089844 11.394531 9.050781 11.09375 C 9.046875 11.0625 9.042969 11.03125 9.039062 11 C 9.019531 10.859375 9 10.71875 8.980469 10.574219 C 8.886719 9.898438 8.886719 9.898438 8.875 9.574219 C 8.859375 9.578125 8.839844 9.582031 8.824219 9.585938 C 8.742188 9.601562 8.664062 9.601562 8.582031 9.601562 C 8.535156 9.601562 8.535156 9.601562 8.484375 9.601562 C 8.460938 9.601562 8.460938 9.601562 8.433594 9.601562 C 8.382812 9.601562 8.332031 9.601562 8.28125 9.601562 C 8.101562 9.601562 7.925781 9.597656 7.75 9.574219 C 7.753906 9.589844 7.757812 9.605469 7.765625 9.621094 C 7.777344 9.664062 7.789062 9.707031 7.800781 9.746094 C 7.816406 9.800781 7.835938 9.855469 7.851562 9.90625 C 8.039062 10.53125 8.007812 11.191406 7.699219 11.773438 C 7.648438 11.863281 7.589844 11.945312 7.523438 12.023438 C 7.507812 12.046875 7.488281 12.070312 7.472656 12.09375 C 7.457031 12.113281 7.441406 12.132812 7.425781 12.148438 C 7.410156 12.148438 7.390625 12.148438 7.375 12.148438 C 7.375 12.167969 7.375 12.183594 7.375 12.199219 C 7.359375 12.199219 7.34375 12.199219 7.324219 12.199219 C 7.320312 12.214844 7.3125 12.230469 7.308594 12.246094 C 7.265625 12.3125 7.222656 12.34375 7.15625 12.390625 C 7.132812 12.40625 7.113281 12.421875 7.089844 12.433594 C 7.027344 12.472656 6.96875 12.5 6.898438 12.523438 C 6.898438 12.542969 6.898438 12.558594 6.898438 12.574219 C 7.246094 12.574219 7.59375 12.574219 7.949219 12.574219 C 7.964844 12.625 7.984375 12.675781 8 12.726562 C 8.015625 12.726562 8.03125 12.726562 8.050781 12.726562 C 8.078125 12.765625 8.101562 12.808594 8.125 12.851562 C 8.148438 12.886719 8.148438 12.886719 8.175781 12.925781 C 8.171875 12.992188 8.160156 13.035156 8.121094 13.089844 C 8.050781 13.144531 7.992188 13.132812 7.902344 13.132812 C 7.886719 13.132812 7.867188 13.132812 7.851562 13.136719 C 7.792969 13.136719 7.734375 13.136719 7.675781 13.132812 C 7.632812 13.136719 7.589844 13.136719 7.546875 13.136719 C 7.433594 13.136719 7.320312 13.136719 7.203125 13.136719 C 7.085938 13.136719 6.964844 13.136719 6.84375 13.136719 C 6.644531 13.136719 6.441406 13.136719 6.242188 13.136719 C 6.007812 13.132812 5.777344 13.132812 5.542969 13.136719 C 5.34375 13.136719 5.144531 13.136719 4.945312 13.136719 C 4.824219 13.136719 4.707031 13.136719 4.585938 13.136719 C 4.476562 13.136719 4.363281 13.136719 4.25 13.136719 C 4.210938 13.132812 4.167969 13.136719 4.128906 13.136719 C 4.070312 13.136719 4.015625 13.136719 3.957031 13.132812 C 3.925781 13.132812 3.894531 13.132812 3.863281 13.132812 C 3.730469 13.121094 3.636719 13.074219 3.523438 13 C 3.523438 12.984375 3.523438 12.96875 3.523438 12.949219 C 3.507812 12.949219 3.492188 12.949219 3.476562 12.949219 C 3.230469 12.503906 3.261719 11.898438 3.261719 11.40625 C 3.261719 11.375 3.261719 11.347656 3.261719 11.316406 C 3.261719 10.335938 3.476562 9.449219 4.023438 8.625 C 4.042969 8.625 4.058594 8.625 4.074219 8.625 C 4.082031 8.605469 4.089844 8.585938 4.097656 8.566406 C 4.125 8.5 4.125 8.5 4.148438 8.449219 C 4.167969 8.449219 4.183594 8.449219 4.199219 8.449219 C 4.199219 8.433594 4.199219 8.417969 4.199219 8.398438 C 4.214844 8.398438 4.234375 8.398438 4.25 8.398438 C 4.253906 8.382812 4.257812 8.367188 4.261719 8.347656 C 4.308594 8.257812 4.371094 8.207031 4.449219 8.144531 C 4.492188 8.105469 4.53125 8.070312 4.570312 8.027344 C 4.625 7.976562 4.625 7.976562 4.699219 7.949219 C 4.699219 7.933594 4.699219 7.917969 4.699219 7.898438 C 4.75 7.859375 4.75 7.859375 4.820312 7.808594 C 4.847656 7.789062 4.871094 7.773438 4.898438 7.753906 C 4.921875 7.734375 4.949219 7.71875 4.976562 7.699219 C 4.996094 7.683594 5.019531 7.667969 5.042969 7.652344 C 5.101562 7.609375 5.164062 7.566406 5.226562 7.523438 C 5.253906 7.503906 5.253906 7.503906 5.285156 7.484375 C 5.394531 7.40625 5.5 7.351562 5.625 7.300781 C 5.667969 7.277344 5.710938 7.253906 5.753906 7.226562 C 5.882812 7.15625 6.011719 7.105469 6.152344 7.054688 C 6.226562 7.027344 6.226562 7.027344 6.285156 6.988281 C 6.363281 6.941406 6.441406 6.910156 6.527344 6.878906 C 6.558594 6.863281 6.59375 6.851562 6.628906 6.839844 C 6.644531 6.832031 6.660156 6.824219 6.679688 6.820312 C 7.015625 6.6875 7.347656 6.539062 7.660156 6.359375 C 7.703125 6.335938 7.75 6.3125 7.792969 6.289062 C 8.070312 6.148438 8.351562 5.9375 8.523438 5.675781 C 8.542969 5.675781 8.558594 5.675781 8.574219 5.675781 C 8.585938 5.65625 8.585938 5.65625 8.59375 5.632812 C 8.628906 5.566406 8.664062 5.496094 8.699219 5.425781 C 8.714844 5.425781 8.734375 5.425781 8.75 5.425781 C 8.75 5.398438 8.75 5.375 8.75 5.351562 C 8.765625 5.351562 8.78125 5.351562 8.800781 5.351562 C 8.800781 5.332031 8.804688 5.316406 8.808594 5.296875 C 8.828125 5.207031 8.871094 5.132812 8.917969 5.054688 C 9.132812 4.664062 9.28125 4.226562 9.398438 3.800781 C 9.269531 3.832031 9.160156 3.878906 9.042969 3.945312 C 8.898438 4.027344 8.753906 4.09375 8.601562 4.148438 C 8.5625 4.164062 8.523438 4.179688 8.484375 4.195312 C 8.441406 4.214844 8.394531 4.230469 8.351562 4.25 C 8.320312 4.261719 8.292969 4.273438 8.265625 4.285156 C 7.996094 4.390625 7.722656 4.464844 7.441406 4.53125 C 7.382812 4.546875 7.320312 4.5625 7.261719 4.578125 C 6.695312 4.726562 5.910156 4.875 5.375 4.574219 C 5.359375 4.566406 5.34375 4.558594 5.328125 4.550781 C 5.230469 4.492188 5.230469 4.492188 5.207031 4.433594 C 5.167969 4.164062 5.226562 3.914062 5.351562 3.675781 C 5.359375 3.65625 5.371094 3.636719 5.378906 3.617188 C 5.390625 3.597656 5.390625 3.597656 5.398438 3.574219 C 5.417969 3.574219 5.433594 3.574219 5.449219 3.574219 C 5.457031 3.554688 5.460938 3.539062 5.46875 3.519531 C 5.507812 3.4375 5.550781 3.402344 5.625 3.351562 C 5.640625 3.351562 5.65625 3.351562 5.675781 3.351562 C 5.6875 3.3125 5.6875 3.3125 5.699219 3.273438 C 5.746094 3.242188 5.746094 3.242188 5.804688 3.214844 C 5.824219 3.203125 5.84375 3.191406 5.863281 3.179688 C 5.894531 3.164062 5.894531 3.164062 5.925781 3.148438 C 5.957031 3.132812 5.988281 3.113281 6.015625 3.09375 C 6.371094 2.902344 6.792969 2.921875 7.183594 2.921875 Z M 7.183594 2.921875 "/>
</g>
</svg>
