<?xml version="1.0" encoding="UTF-8"?>
<svg xmlns="http://www.w3.org/2000/svg" xmlns:xlink="http://www.w3.org/1999/xlink" width="16px" height="16px" viewBox="0 0 16 16" version="1.1">
<g id="surface1">
<path style=" stroke:none;fill-rule:nonzero;fill:rgb(99.607843%,99.607843%,99.607843%);fill-opacity:1;" d="M 0 0 C 5.28125 0 10.558594 0 16 0 C 16 5.28125 16 10.558594 16 16 C 10.71875 16 5.441406 16 0 16 C 0 10.71875 0 5.441406 0 0 Z M 0 0 "/>
<path style=" stroke:none;fill-rule:nonzero;fill:rgb(0%,0%,0%);fill-opacity:1;" d="M 6.777344 0.144531 C 6.84375 0.144531 6.910156 0.144531 6.976562 0.144531 C 7.132812 0.144531 7.292969 0.144531 7.453125 0.144531 C 7.582031 0.144531 7.710938 0.144531 7.839844 0.144531 C 7.859375 0.144531 7.875 0.144531 7.894531 0.144531 C 7.933594 0.144531 7.96875 0.144531 8.007812 0.144531 C 8.359375 0.144531 8.710938 0.144531 9.0625 0.144531 C 9.359375 0.144531 9.660156 0.144531 9.960938 0.144531 C 10.3125 0.144531 10.660156 0.144531 11.011719 0.144531 C 11.050781 0.144531 11.085938 0.144531 11.125 0.144531 C 11.140625 0.144531 11.160156 0.144531 11.179688 0.144531 C 11.308594 0.144531 11.4375 0.144531 11.566406 0.144531 C 11.742188 0.144531 11.914062 0.144531 12.085938 0.144531 C 12.152344 0.144531 12.214844 0.144531 12.277344 0.144531 C 12.367188 0.144531 12.453125 0.144531 12.539062 0.144531 C 12.578125 0.144531 12.578125 0.144531 12.617188 0.144531 C 12.78125 0.144531 12.9375 0.164062 13.101562 0.199219 C 13.128906 0.207031 13.15625 0.210938 13.183594 0.21875 C 13.570312 0.324219 13.851562 0.582031 14.128906 0.855469 C 14.199219 0.925781 14.273438 0.992188 14.347656 1.058594 C 14.460938 1.160156 14.566406 1.265625 14.675781 1.375 C 14.738281 1.4375 14.800781 1.492188 14.871094 1.550781 C 14.953125 1.625 15.035156 1.699219 15.117188 1.773438 C 15.183594 1.839844 15.253906 1.898438 15.324219 1.957031 C 15.476562 2.085938 15.535156 2.265625 15.554688 2.460938 C 15.570312 2.707031 15.582031 2.941406 15.425781 3.148438 C 15.410156 3.167969 15.398438 3.1875 15.386719 3.203125 C 15.285156 3.332031 15.171875 3.410156 15.023438 3.476562 C 15 3.488281 14.972656 3.5 14.949219 3.511719 C 14.792969 3.570312 14.628906 3.558594 14.464844 3.558594 C 14.402344 3.558594 14.34375 3.558594 14.28125 3.558594 C 14.109375 3.5625 13.933594 3.5625 13.761719 3.5625 C 13.65625 3.5625 13.550781 3.5625 13.441406 3.5625 C 13.382812 3.5625 13.324219 3.5625 13.261719 3.5625 C 13.226562 3.5625 13.191406 3.5625 13.152344 3.5625 C 13.105469 3.5625 13.105469 3.5625 13.054688 3.5625 C 12.972656 3.570312 12.972656 3.570312 12.914062 3.621094 C 12.855469 3.703125 12.859375 3.777344 12.875 3.875 C 12.902344 3.960938 12.902344 3.960938 12.941406 4.046875 C 13.035156 4.265625 13.09375 4.492188 13.148438 4.726562 C 13.152344 4.742188 13.15625 4.757812 13.164062 4.777344 C 13.417969 5.84375 13.238281 7.011719 12.796875 8.003906 C 12.769531 8.0625 12.746094 8.128906 12.722656 8.191406 C 12.683594 8.292969 12.628906 8.378906 12.566406 8.464844 C 12.523438 8.53125 12.480469 8.59375 12.441406 8.660156 C 12.347656 8.808594 12.238281 8.941406 12.125 9.074219 C 12.105469 9.097656 12.089844 9.117188 12.070312 9.140625 C 11.769531 9.484375 11.332031 9.886719 10.875 10 C 10.867188 11.957031 10.859375 13.910156 10.851562 15.925781 C 10.628906 15.925781 10.40625 15.925781 10.175781 15.925781 C 10.035156 15.757812 10.035156 15.757812 10.019531 15.597656 C 10.015625 15.582031 10.015625 15.566406 10.011719 15.546875 C 10.003906 15.445312 9.996094 15.339844 9.988281 15.238281 C 9.980469 15.121094 9.960938 15.007812 9.9375 14.890625 C 9.902344 14.738281 9.886719 14.585938 9.882812 14.425781 C 9.878906 14.335938 9.878906 14.335938 9.851562 14.25 C 9.847656 14.199219 9.84375 14.148438 9.84375 14.09375 C 9.828125 13.789062 9.78125 13.484375 9.738281 13.179688 C 9.71875 13.015625 9.695312 12.851562 9.675781 12.6875 C 9.671875 12.65625 9.667969 12.625 9.664062 12.59375 C 9.640625 12.425781 9.621094 12.253906 9.597656 12.085938 C 9.59375 12.058594 9.59375 12.058594 9.589844 12.03125 C 9.582031 11.945312 9.570312 11.859375 9.558594 11.777344 C 9.542969 11.625 9.519531 11.472656 9.5 11.320312 C 9.472656 11.128906 9.449219 10.933594 9.425781 10.738281 C 9.421875 10.695312 9.421875 10.695312 9.417969 10.65625 C 9.414062 10.621094 9.414062 10.621094 9.410156 10.585938 C 9.402344 10.523438 9.402344 10.523438 9.375 10.449219 C 9.34375 10.449219 9.3125 10.449219 9.28125 10.453125 C 7.890625 10.46875 7.890625 10.46875 7.449219 10.351562 C 7.457031 10.363281 7.464844 10.378906 7.472656 10.390625 C 7.746094 10.945312 7.917969 11.472656 7.910156 12.09375 C 7.910156 12.109375 7.910156 12.128906 7.910156 12.148438 C 7.90625 13.035156 7.578125 13.863281 6.96875 14.511719 C 6.734375 14.734375 6.3125 15.101562 5.976562 15.101562 C 5.976562 15.117188 5.976562 15.132812 5.976562 15.148438 C 5.996094 15.148438 6.019531 15.148438 6.042969 15.144531 C 6.261719 15.136719 6.480469 15.128906 6.699219 15.121094 C 6.8125 15.121094 6.925781 15.117188 7.035156 15.109375 C 7.757812 15.074219 7.757812 15.074219 7.953125 15.199219 C 8.085938 15.332031 8.179688 15.492188 8.226562 15.675781 C 8.222656 15.785156 8.199219 15.84375 8.125 15.925781 C 8.074219 15.9375 8.074219 15.9375 8.011719 15.9375 C 7.976562 15.9375 7.976562 15.9375 7.941406 15.9375 C 7.914062 15.9375 7.890625 15.9375 7.863281 15.9375 C 7.835938 15.9375 7.808594 15.9375 7.777344 15.9375 C 7.6875 15.9375 7.59375 15.9375 7.503906 15.9375 C 7.4375 15.9375 7.371094 15.9375 7.304688 15.9375 C 7.144531 15.9375 6.984375 15.9375 6.824219 15.9375 C 6.636719 15.933594 6.449219 15.933594 6.261719 15.933594 C 5.929688 15.933594 5.59375 15.933594 5.261719 15.933594 C 4.9375 15.933594 4.613281 15.933594 4.289062 15.933594 C 4.269531 15.933594 4.25 15.933594 4.230469 15.933594 C 4.148438 15.933594 4.066406 15.933594 3.988281 15.933594 C 3.679688 15.933594 3.371094 15.929688 3.0625 15.929688 C 2.96875 15.929688 2.875 15.929688 2.78125 15.929688 C 2.585938 15.929688 2.390625 15.929688 2.195312 15.929688 C 2.113281 15.929688 2.03125 15.929688 1.953125 15.929688 C 1.863281 15.929688 1.777344 15.929688 1.6875 15.929688 C 1.660156 15.929688 1.636719 15.929688 1.609375 15.929688 C 1.585938 15.929688 1.5625 15.929688 1.539062 15.929688 C 1.519531 15.929688 1.5 15.929688 1.476562 15.929688 C 1.425781 15.925781 1.425781 15.925781 1.351562 15.898438 C 1.351562 15.882812 1.351562 15.867188 1.351562 15.851562 C 1.328125 15.847656 1.308594 15.847656 1.285156 15.847656 C 1.144531 15.808594 1.066406 15.714844 0.988281 15.59375 C 0.839844 15.320312 0.8125 15.003906 0.777344 14.695312 C 0.773438 14.640625 0.765625 14.582031 0.757812 14.527344 C 0.746094 14.417969 0.734375 14.308594 0.726562 14.199219 C 0.722656 14.171875 0.71875 14.144531 0.714844 14.117188 C 0.695312 13.851562 0.695312 13.585938 0.695312 13.320312 C 0.695312 13.238281 0.695312 13.15625 0.695312 13.078125 C 0.695312 12.667969 0.714844 12.269531 0.78125 11.867188 C 0.78125 11.847656 0.785156 11.832031 0.789062 11.8125 C 0.859375 11.367188 0.957031 10.929688 1.101562 10.5 C 1.105469 10.480469 1.113281 10.460938 1.117188 10.441406 C 1.15625 10.316406 1.210938 10.203125 1.269531 10.089844 C 1.300781 10.027344 1.320312 9.964844 1.34375 9.898438 C 1.546875 9.316406 2.003906 8.789062 2.425781 8.351562 C 2.4375 8.335938 2.453125 8.320312 2.46875 8.304688 C 2.652344 8.113281 2.839844 7.9375 3.050781 7.773438 C 3.074219 7.757812 3.074219 7.757812 3.097656 7.738281 C 3.300781 7.582031 3.503906 7.429688 3.726562 7.300781 C 3.75 7.285156 3.773438 7.273438 3.796875 7.257812 C 3.890625 7.203125 3.980469 7.152344 4.074219 7.101562 C 4.097656 7.085938 4.117188 7.074219 4.140625 7.0625 C 4.6875 6.757812 5.25 6.492188 5.824219 6.242188 C 5.84375 6.234375 5.863281 6.226562 5.882812 6.21875 C 5.976562 6.179688 6.070312 6.140625 6.167969 6.109375 C 6.253906 6.082031 6.324219 6.046875 6.398438 6 C 6.453125 5.980469 6.503906 5.957031 6.554688 5.9375 C 7.945312 5.414062 8.960938 4.542969 9.601562 3.199219 C 9.71875 2.9375 9.8125 2.667969 9.90625 2.394531 C 9.949219 2.277344 9.992188 2.15625 10.035156 2.039062 C 10.046875 2.011719 10.058594 1.984375 10.066406 1.957031 C 10.085938 1.90625 10.109375 1.851562 10.128906 1.800781 C 10.136719 1.773438 10.148438 1.75 10.15625 1.726562 C 10.164062 1.703125 10.171875 1.683594 10.183594 1.660156 C 10.203125 1.59375 10.207031 1.542969 10.199219 1.476562 C 10.132812 1.417969 10.132812 1.417969 10.070312 1.425781 C 9.972656 1.457031 9.890625 1.507812 9.804688 1.558594 C 9.679688 1.632812 9.558594 1.695312 9.425781 1.75 C 9.375 1.769531 9.324219 1.792969 9.273438 1.8125 C 8.878906 1.980469 8.480469 2.132812 8.074219 2.273438 C 8.011719 2.296875 7.949219 2.320312 7.882812 2.34375 C 6.824219 2.738281 5.21875 3.179688 4.109375 2.730469 C 3.792969 2.578125 3.792969 2.578125 3.726562 2.449219 C 3.71875 2.378906 3.714844 2.3125 3.714844 2.242188 C 3.714844 2.222656 3.714844 2.203125 3.714844 2.183594 C 3.730469 1.683594 3.910156 1.21875 4.261719 0.859375 C 4.609375 0.535156 4.609375 0.535156 4.804688 0.484375 C 4.820312 0.480469 4.835938 0.480469 4.851562 0.476562 C 4.859375 0.457031 4.867188 0.441406 4.875 0.425781 C 4.945312 0.398438 5.015625 0.375 5.089844 0.351562 C 5.121094 0.339844 5.121094 0.339844 5.152344 0.332031 C 5.332031 0.277344 5.507812 0.234375 5.691406 0.207031 C 5.734375 0.203125 5.777344 0.195312 5.820312 0.1875 C 6.136719 0.136719 6.457031 0.144531 6.777344 0.144531 Z M 6.777344 0.144531 "/>
<path style=" stroke:none;fill-rule:nonzero;fill:rgb(53.725493%,53.725493%,53.725493%);fill-opacity:1;" d="M 6.273438 15.023438 C 6.199219 15.074219 6.199219 15.074219 6.125 15.074219 C 6.125 15.089844 6.125 15.109375 6.125 15.125 C 6.695312 15.125 7.261719 15.125 7.851562 15.125 C 7.851562 15.132812 7.851562 15.140625 7.851562 15.148438 C 7.230469 15.148438 6.613281 15.148438 5.976562 15.148438 C 5.976562 15.132812 5.976562 15.117188 5.976562 15.101562 C 6.015625 15.082031 6.054688 15.066406 6.097656 15.046875 C 6.121094 15.039062 6.140625 15.027344 6.164062 15.019531 C 6.226562 15 6.226562 15 6.273438 15.023438 Z M 6.273438 15.023438 "/>
<path style=" stroke:none;fill-rule:nonzero;fill:rgb(17.254902%,17.254902%,17.254902%);fill-opacity:1;" d="M 4.476562 0.675781 C 4.492188 0.683594 4.507812 0.691406 4.523438 0.699219 C 4.375 0.847656 4.226562 0.996094 4.074219 1.148438 C 4.074219 1.011719 4.207031 0.917969 4.300781 0.824219 C 4.355469 0.773438 4.414062 0.722656 4.476562 0.675781 Z M 4.476562 0.675781 "/>
</g>
</svg>
