<?xml version="1.0" encoding="UTF-8"?>
<svg version="1.1" xmlns="http://www.w3.org/2000/svg" width="640" height="640">
<path d="M0 0 C1.54052284 -0.01052147 1.54052284 -0.01052147 3.11216736 -0.02125549 C6.40555255 -0.03865531 9.69875804 -0.04510709 12.9921875 -0.046875 C14.11656219 -0.04754974 15.24093689 -0.04822449 16.39938354 -0.04891968 C32.43889807 -0.03359963 48.0523625 0.29546659 63.8671875 3.203125 C64.86218262 3.37473145 65.85717773 3.54633789 66.88232422 3.72314453 C112.27652921 11.62915471 157.19736454 28.30949518 194.8671875 55.203125 C195.56521484 55.70038086 196.26324219 56.19763672 196.98242188 56.70996094 C207.7187045 64.39218823 218.06516221 72.35732686 227.8671875 81.203125 C228.77114258 82.01450928 228.77114258 82.01450928 229.69335938 82.84228516 C243.11269763 94.94552286 255.53843387 107.81185242 266.40722656 122.26757812 C267.99094025 124.36719052 269.59746608 126.44838155 271.203125 128.53125 C280.1018516 140.20394326 287.68832604 152.41134323 294.8671875 165.203125 C295.28838867 165.94240234 295.70958984 166.68167969 296.14355469 167.44335938 C319.53229641 208.66770382 333.85235688 258.85631644 334.0703125 306.3359375 C334.07732681 307.36295273 334.08434113 308.38996796 334.09156799 309.44810486 C334.10896781 312.74149005 334.11541959 316.03469554 334.1171875 319.328125 C334.11819962 321.01468704 334.11819962 321.01468704 334.11923218 322.73532104 C334.10391213 338.77483557 333.77484591 354.3883 330.8671875 370.203125 C330.69558105 371.19812012 330.52397461 372.19311523 330.34716797 373.21826172 C322.44115779 418.61246671 305.76081732 463.53330204 278.8671875 501.203125 C278.36993164 501.90115234 277.87267578 502.59917969 277.36035156 503.31835938 C269.67812427 514.054642 261.71298564 524.40109971 252.8671875 534.203125 C252.05580322 535.10708008 252.05580322 535.10708008 251.22802734 536.02929688 C239.12478964 549.44863513 226.25846008 561.87437137 211.80273438 572.74316406 C209.70312198 574.32687775 207.62193095 575.93340358 205.5390625 577.5390625 C193.86435395 586.43867599 181.64555686 593.99873335 168.8671875 601.203125 C167.59624464 601.93731044 166.32539847 602.67166329 165.0546875 603.40625 C120.46032391 628.33855328 69.59228079 640.01138808 18.84692383 639.77954102 C15.74394326 639.76583076 12.64219582 639.77267208 9.53930664 639.80004883 C-17.09270437 640.0339734 -42.74607959 637.77276528 -68.5078125 630.453125 C-69.73145508 630.11442383 -70.95509766 629.77572266 -72.21582031 629.42675781 C-105.85941254 619.89774866 -138.58690431 605.58291518 -167.1328125 585.203125 C-167.83083984 584.70586914 -168.52886719 584.20861328 -169.24804688 583.69628906 C-179.9843295 576.01406177 -190.33078721 568.04892314 -200.1328125 559.203125 C-201.03676758 558.39174072 -201.03676758 558.39174072 -201.95898438 557.56396484 C-215.37832263 545.46072714 -227.80405887 532.59439758 -238.67285156 518.13867188 C-240.25656525 516.03905948 -241.86309108 513.95786845 -243.46875 511.875 C-252.3674766 500.20230674 -259.95395104 487.99490677 -267.1328125 475.203125 C-267.55401367 474.46384766 -267.97521484 473.72457031 -268.40917969 472.96289062 C-291.79792141 431.73854618 -306.11798188 381.54993356 -306.3359375 334.0703125 C-306.34295181 333.04329727 -306.34996613 332.01628204 -306.35719299 330.95814514 C-306.37459281 327.66475995 -306.38104459 324.37155446 -306.3828125 321.078125 C-306.38348724 319.95375031 -306.38416199 318.82937561 -306.38485718 317.67092896 C-306.36953713 301.63141443 -306.04047091 286.01795 -303.1328125 270.203125 C-302.96120605 269.20812988 -302.78959961 268.21313477 -302.61279297 267.18798828 C-294.70678279 221.79378329 -278.02644232 176.87294796 -251.1328125 139.203125 C-250.63555664 138.50509766 -250.13830078 137.80707031 -249.62597656 137.08789062 C-241.94374927 126.351608 -233.97861064 116.00515029 -225.1328125 106.203125 C-224.59188965 105.60048828 -224.0509668 104.99785156 -223.49365234 104.37695312 C-211.39041464 90.95761487 -198.52408508 78.53187863 -184.06835938 67.66308594 C-181.96874698 66.07937225 -179.88755595 64.47284642 -177.8046875 62.8671875 C-166.13199424 53.9684609 -153.92459427 46.38198646 -141.1328125 39.203125 C-140.39353516 38.78192383 -139.65425781 38.36072266 -138.89257812 37.92675781 C-97.66823368 14.53801609 -47.47962106 0.21795562 0 0 Z " fill="#E4E6EA" transform="translate(306.1328125,0.796875)"/>
<path d="M0 0 C1.72597355 -0.00463742 3.45194609 -0.0096633 5.17791748 -0.01504517 C9.83701378 -0.02807657 14.49609575 -0.03459512 19.1552074 -0.03905582 C22.07220889 -0.04199977 24.98920657 -0.04610684 27.90620613 -0.05056 C37.05144844 -0.06420648 46.1966819 -0.07388874 55.34193367 -0.07776189 C65.86570412 -0.08224486 76.38934484 -0.09981589 86.91307586 -0.12876248 C95.07308064 -0.15042211 103.233049 -0.16046834 111.3930822 -0.16180301 C116.2558999 -0.16284736 121.11859517 -0.16867696 125.98138237 -0.18662262 C130.55581397 -0.20317909 135.13003202 -0.20522229 139.70448303 -0.19648361 C141.37490476 -0.19571746 143.04533835 -0.1999998 144.71573067 -0.20994186 C164.56852981 -0.32109859 177.58145768 4.39504829 191.88110352 18.28613281 C192.47922852 18.90488281 193.07735352 19.52363281 193.69360352 20.16113281 C197.57115394 24.14947039 201.67199801 27.7838087 205.90063477 31.39160156 C206.49231445 31.97554687 207.08399414 32.55949219 207.69360352 33.16113281 C207.69360352 33.82113281 207.69360352 34.48113281 207.69360352 35.16113281 C208.35360352 35.16113281 209.01360352 35.16113281 209.69360352 35.16113281 C209.69360352 35.82113281 209.69360352 36.48113281 209.69360352 37.16113281 C210.47735352 37.40863281 211.26110352 37.65613281 212.06860352 37.91113281 C215.13301809 39.37037785 215.31086112 40.21128237 216.69360352 43.16113281 C218.61027018 44.32779948 218.61027018 44.32779948 220.69360352 45.16113281 C225.44036715 48.3256419 226.98278775 52.82703042 228.69360352 58.16113281 C230.00467556 66.7914968 228.84844964 74.03455805 223.69360352 81.16113281 C217.7583435 87.53358832 211.94506436 89.83144379 203.32975769 90.28579712 C200.60865006 90.3714745 197.88829187 90.42956145 195.16625977 90.47753906 C194.17734238 90.49832016 193.18842499 90.51910126 192.16954041 90.54051208 C189.03179413 90.60553835 185.89396905 90.664673 182.75610352 90.72363281 C180.62002788 90.76686272 178.48396002 90.8104784 176.34790039 90.85449219 C171.12988308 90.96117119 165.91178858 91.06302194 160.69360352 91.16113281 C159.39872225 95.39077363 160.34711571 97.68752218 161.88110352 101.84863281 C166.28370234 114.34324531 169.32389808 126.86781138 169.69360352 140.16113281 C169.73356445 141.340625 169.77352539 142.52011719 169.81469727 143.73535156 C170.32935167 172.70736701 162.82745262 203.15597242 144.69360352 226.16113281 C143.56245117 227.63839844 143.56245117 227.63839844 142.40844727 229.14550781 C133.99909959 239.81946542 123.23112706 249.59653332 110.69360352 255.16113281 C109.70360352 255.16113281 108.71360352 255.16113281 107.69360352 255.16113281 C107.69498621 256.33480109 107.69498621 256.33480109 107.69639683 257.53217983 C107.71845063 276.54289663 107.73501437 295.55361088 107.74541569 314.56433773 C107.75057897 323.75765885 107.75762227 332.95097145 107.76904297 342.14428711 C107.77898884 350.15420317 107.78545671 358.16411307 107.78769201 366.17403513 C107.78899928 370.41790535 107.79208618 374.66175791 107.79933357 378.90562248 C107.80609226 382.89542351 107.80822079 386.88519951 107.8067112 390.87500572 C107.80698759 392.34362677 107.80899362 393.8122486 107.81280899 395.28086472 C107.8177438 397.27736057 107.81600164 399.27386968 107.81385803 401.27037048 C107.81524072 402.9503382 107.81524072 402.9503382 107.81665134 404.66424465 C107.69360352 407.16113281 107.69360352 407.16113281 106.69360352 408.16113281 C103.72256338 408.31470546 100.79082798 408.39281402 97.81860352 408.41113281 C96.57530273 408.44207031 96.57530273 408.44207031 95.30688477 408.47363281 C94.50895508 408.47878906 93.71102539 408.48394531 92.88891602 408.48925781 C92.15688965 408.49860352 91.42486328 408.50794922 90.6706543 408.51757812 C88.09914174 408.05395645 87.25826782 407.226076 85.69360352 405.16113281 C85.03960899 402.46376872 84.53571741 399.8952693 84.13110352 397.16113281 C83.90114305 395.72355141 83.67066509 394.28605271 83.43969727 392.84863281 C83.26374023 391.71107544 83.26374023 391.71107544 83.08422852 390.55053711 C82.67743872 388.06225478 82.20051691 385.5933847 81.72094727 383.11816406 C80.50296281 376.4805807 79.78892742 369.79475469 79.06225586 363.09017944 C77.74700981 350.99021227 76.3219692 338.91074961 74.69360352 326.84863281 C74.53093994 325.64215088 74.36827637 324.43566895 74.20068359 323.19262695 C73.43232176 317.52704717 72.65255462 311.86310953 71.8666687 306.19993591 C68.10486894 279.03374055 68.10486894 279.03374055 67.69360352 266.16113281 C67.0067749 266.32339355 66.31994629 266.4856543 65.61230469 266.65283203 C62.35339426 267.2203813 59.30251222 267.29074795 55.99438477 267.29394531 C54.05595703 267.29587891 54.05595703 267.29587891 52.07836914 267.29785156 C51.07350464 267.29470947 51.07350464 267.29470947 50.04833984 267.29150391 C48.02962568 267.28619468 46.01113855 267.29143905 43.99243164 267.29785156 C36.83020597 267.29074265 29.79994082 267.08479886 22.69360352 266.16113281 C22.882854 266.78455566 23.07210449 267.40797852 23.26708984 268.05029297 C23.77190417 269.71867608 24.27127064 271.3887094 24.76782227 273.05957031 C25.40470497 275.19326175 26.05385334 277.32331808 26.71313477 279.45019531 C34.23089889 304.39678338 33.00993379 330.75688969 20.65454102 354.12646484 C18.57236525 357.65748791 16.2244318 360.94150178 13.69360352 364.16113281 C12.9962207 365.09054687 12.29883789 366.01996094 11.58032227 366.97753906 C10.95770508 367.698125 10.33508789 368.41871094 9.69360352 369.16113281 C9.03360352 369.16113281 8.37360352 369.16113281 7.69360352 369.16113281 C7.69360352 369.82113281 7.69360352 370.48113281 7.69360352 371.16113281 C7.03360352 371.16113281 6.37360352 371.16113281 5.69360352 371.16113281 C5.46286133 371.74636719 5.23211914 372.33160156 4.99438477 372.93457031 C3.36252393 375.72784561 1.54774707 376.97105609 -1.11889648 378.78613281 C-1.9709668 379.37652344 -2.82303711 379.96691406 -3.70092773 380.57519531 C-6.18317192 382.08612655 -8.57992533 383.17235871 -11.30639648 384.16113281 C-11.30639648 384.82113281 -11.30639648 385.48113281 -11.30639648 386.16113281 C2.55360352 386.16113281 16.41360352 386.16113281 30.69360352 386.16113281 C31.35360352 388.14113281 32.01360352 390.12113281 32.69360352 392.16113281 C33.35360352 392.16113281 34.01360352 392.16113281 34.69360352 392.16113281 C35.7513209 393.79178045 36.74633397 395.46394155 37.69360352 397.16113281 C38.68360352 398.64613281 38.68360352 398.64613281 39.69360352 400.16113281 C39.49333677 402.83135603 39.09348062 404.57988857 37.57053757 406.79357338 C34.72256263 408.86864628 32.34256638 408.53894002 28.85015869 408.54208374 C28.15016337 408.54676371 27.45016805 408.55144368 26.72896075 408.55626547 C24.37746547 408.56825537 22.0265487 408.55874286 19.67504883 408.54931641 C17.99140075 408.5533805 16.30775533 408.55872146 14.62411499 408.56524658 C10.04539003 408.57894959 5.46686737 408.57360816 0.88813877 408.56410933 C-3.90256236 408.55652316 -8.69324596 408.5635559 -13.48394775 408.56826782 C-21.53417066 408.57373053 -29.58431109 408.56652247 -37.63452148 408.55224609 C-46.93612191 408.53594075 -56.23752485 408.54119061 -65.53912044 408.55772531 C-73.52480404 408.57135197 -81.51042826 408.57325339 -89.49611974 408.5654093 C-94.26554043 408.56073643 -99.03486843 408.5600969 -103.80428314 408.57001877 C-108.29244059 408.57870251 -112.78034445 408.57264079 -117.26847458 408.555336 C-118.91356613 408.55137772 -120.55867911 408.55249391 -122.20376205 408.55912399 C-124.45446598 408.5673565 -126.70436411 408.55699802 -128.95501709 408.54208374 C-130.21305523 408.54095266 -131.47109337 408.53982159 -132.76725388 408.53865623 C-138.04458845 407.97571836 -141.87139605 406.11779977 -146.30639648 403.16113281 C-146.30639648 402.50113281 -146.30639648 401.84113281 -146.30639648 401.16113281 C-146.96639648 401.16113281 -147.62639648 401.16113281 -148.30639648 401.16113281 C-158.09281161 383.36765076 -156.91363329 359.02856874 -156.86889648 339.34863281 C-156.86974243 338.19758057 -156.87058838 337.04652832 -156.87145996 335.8605957 C-156.81023145 296.56277429 -148.31041209 261.16715622 -126.30639648 228.16113281 C-125.64639648 228.16113281 -124.98639648 228.16113281 -124.30639648 228.16113281 C-123.99702148 227.37738281 -123.68764648 226.59363281 -123.36889648 225.78613281 C-122.30639648 223.16113281 -122.30639648 223.16113281 -121.30639648 221.16113281 C-120.64639648 221.16113281 -119.98639648 221.16113281 -119.30639648 221.16113281 C-119.30639648 220.50113281 -119.30639648 219.84113281 -119.30639648 219.16113281 C-118.64639648 219.16113281 -117.98639648 219.16113281 -117.30639648 219.16113281 C-117.14139648 218.48050781 -116.97639648 217.79988281 -116.80639648 217.09863281 C-114.92856118 213.42120534 -112.48436871 211.48293767 -109.33764648 208.87207031 C-107.60706874 207.41439137 -106.04791604 205.92543393 -104.49389648 204.28613281 C-102.30639648 202.16113281 -102.30639648 202.16113281 -99.30639648 201.16113281 C-99.30639648 200.50113281 -99.30639648 199.84113281 -99.30639648 199.16113281 C-97.25170898 197.46191406 -97.25170898 197.46191406 -94.43139648 195.47363281 C-93.42592773 194.76078125 -92.42045898 194.04792969 -91.38452148 193.31347656 C-90.36874023 192.60320312 -89.35295898 191.89292969 -88.30639648 191.16113281 C-87.43499023 190.54367187 -86.56358398 189.92621094 -85.66577148 189.29003906 C-83.22276152 187.56533548 -80.76727661 185.86021698 -78.30639648 184.16113281 C-77.12883789 183.33742188 -77.12883789 183.33742188 -75.92749023 182.49707031 C-71.51059945 179.4627934 -67.27525626 177.21721272 -62.30639648 175.16113281 C-60.59125476 174.21503851 -58.88360247 173.2553079 -57.18139648 172.28613281 C-52.03791598 169.42311811 -46.78880791 167.31639292 -41.25170898 165.33691406 C-38.31892313 164.25714057 -38.31892313 164.25714057 -35.86499023 162.69628906 C-32.76890746 160.8386394 -29.6082258 159.59507271 -26.24389648 158.28613281 C-24.89602439 157.75543068 -23.54837037 157.22417437 -22.20092773 156.69238281 C-21.53786621 156.43199219 -20.87480469 156.17160156 -20.19165039 155.90332031 C-6.73404773 150.605326 6.54558408 144.68354407 19.15454102 137.57910156 C20.89080031 136.60946752 22.64758701 135.67594064 24.42016602 134.77441406 C35.49201535 129.08254785 46.71197058 120.63358222 53.69360352 110.16113281 C54.35360352 110.16113281 55.01360352 110.16113281 55.69360352 110.16113281 C56.09579102 109.35675781 56.09579102 109.35675781 56.50610352 108.53613281 C57.90193685 105.74446615 59.29777018 102.95279948 60.69360352 100.16113281 C61.35360352 100.16113281 62.01360352 100.16113281 62.69360352 100.16113281 C62.69360352 99.17113281 62.69360352 98.18113281 62.69360352 97.16113281 C63.35360352 97.16113281 64.01360352 97.16113281 64.69360352 97.16113281 C64.78254883 96.47792969 64.87149414 95.79472656 64.96313477 95.09082031 C65.86625255 91.46869018 67.55361449 88.50254718 69.38110352 85.28613281 C77.95007021 69.68562924 83.89836712 52.28096803 88.69360352 35.16113281 C83.41964438 36.47454497 79.09870321 38.37059976 74.38110352 41.03613281 C68.61428671 44.20245104 62.86983513 46.8751931 56.69360352 49.16113281 C55.15051626 49.78261718 53.60889634 50.40775464 52.06860352 51.03613281 C50.27713507 51.74496731 48.48544602 52.45324441 46.69360352 53.16113281 C45.57856445 53.61488281 44.46352539 54.06863281 43.31469727 54.53613281 C32.57947921 58.80989567 21.59924388 61.7164682 10.39379883 64.48828125 C7.96524806 65.09344273 5.54346564 65.71876221 3.12329102 66.35644531 C-19.45087291 72.26625997 -50.88647437 78.18789236 -72.30639648 66.16113281 C-72.91483398 65.82855469 -73.52327148 65.49597656 -74.15014648 65.15332031 C-78.04130819 62.82229419 -78.04130819 62.82229419 -78.97045898 60.50488281 C-80.5097407 49.76570805 -78.18691569 39.70931369 -73.30639648 30.16113281 C-72.92354492 29.39285156 -72.54069336 28.62457031 -72.14624023 27.83300781 C-71.73051758 27.00542969 -71.73051758 27.00542969 -71.30639648 26.16113281 C-70.64639648 26.16113281 -69.98639648 26.16113281 -69.30639648 26.16113281 C-69.07952148 25.41863281 -68.85264648 24.67613281 -68.61889648 23.91113281 C-67.04744038 20.61855812 -65.30643932 19.18616173 -62.30639648 17.16113281 C-61.64639648 17.16113281 -60.98639648 17.16113281 -60.30639648 17.16113281 C-59.81139648 15.67613281 -59.81139648 15.67613281 -59.30639648 14.16113281 C-57.48608398 12.91503906 -57.48608398 12.91503906 -55.18139648 11.72363281 C-54.36799805 11.29566406 -53.55459961 10.86769531 -52.71655273 10.42675781 C-51.52352539 9.80027344 -51.52352539 9.80027344 -50.30639648 9.16113281 C-49.07416135 8.43716368 -47.84464389 7.70853282 -46.61889648 6.97363281 C-32.49673368 -0.75358835 -15.61994711 0.00985347 0 0 Z " fill="#6B7280" transform="translate(287.306396484375,116.8388671875)"/>
</svg>
