<?xml version="1.0" encoding="UTF-8"?>
<svg xmlns="http://www.w3.org/2000/svg" xmlns:xlink="http://www.w3.org/1999/xlink" width="64px" height="64px" viewBox="0 0 64 64" version="1.1">
<g id="surface1">
<path style=" stroke:none;fill-rule:nonzero;fill:rgb(21.568628%,25.490198%,31.764707%);fill-opacity:1;" d="M 30.613281 0.078125 C 30.765625 0.078125 30.765625 0.078125 30.925781 0.078125 C 31.253906 0.0742188 31.582031 0.0742188 31.914062 0.0742188 C 32.023438 0.0742188 32.136719 0.0742188 32.253906 0.0742188 C 33.855469 0.078125 35.417969 0.109375 37 0.398438 C 37.097656 0.417969 37.199219 0.433594 37.300781 0.453125 C 41.839844 1.242188 46.332031 2.910156 50.101562 5.601562 C 50.167969 5.648438 50.238281 5.699219 50.3125 5.75 C 51.386719 6.519531 52.417969 7.316406 53.398438 8.199219 C 53.492188 8.28125 53.492188 8.28125 53.582031 8.363281 C 54.925781 9.574219 56.167969 10.859375 57.253906 12.304688 C 57.414062 12.515625 57.574219 12.722656 57.734375 12.933594 C 58.625 14.101562 59.382812 15.320312 60.101562 16.601562 C 60.140625 16.675781 60.183594 16.746094 60.226562 16.824219 C 62.566406 20.945312 64 25.964844 64.019531 30.714844 C 64.019531 30.816406 64.023438 30.917969 64.023438 31.023438 C 64.023438 31.355469 64.023438 31.683594 64.023438 32.011719 C 64.023438 32.179688 64.023438 32.179688 64.023438 32.351562 C 64.023438 33.957031 63.992188 35.519531 63.699219 37.101562 C 63.683594 37.199219 63.664062 37.300781 63.648438 37.402344 C 62.855469 41.941406 61.1875 46.433594 58.5 50.199219 C 58.449219 50.269531 58.402344 50.339844 58.347656 50.410156 C 57.582031 51.484375 56.785156 52.519531 55.898438 53.5 C 55.820312 53.589844 55.820312 53.589844 55.734375 53.683594 C 54.527344 55.023438 53.238281 56.265625 51.792969 57.355469 C 51.582031 57.511719 51.375 57.671875 51.167969 57.832031 C 50 58.722656 48.777344 59.480469 47.5 60.199219 C 47.371094 60.273438 47.246094 60.347656 47.117188 60.421875 C 42.660156 62.914062 37.574219 64.082031 32.496094 64.058594 C 32.1875 64.054688 31.878906 64.058594 31.566406 64.058594 C 28.902344 64.082031 26.339844 63.855469 23.761719 63.125 C 23.640625 63.089844 23.519531 63.058594 23.390625 63.023438 C 20.027344 62.070312 16.753906 60.636719 13.898438 58.601562 C 13.832031 58.550781 13.761719 58.5 13.6875 58.449219 C 12.613281 57.679688 11.582031 56.882812 10.601562 56 C 10.507812 55.917969 10.507812 55.917969 10.417969 55.835938 C 9.074219 54.625 7.832031 53.339844 6.746094 51.894531 C 6.585938 51.683594 6.425781 51.476562 6.265625 51.265625 C 5.375 50.101562 4.617188 48.878906 3.898438 47.601562 C 3.859375 47.527344 3.816406 47.453125 3.773438 47.375 C 1.433594 43.253906 0 38.234375 -0.0195312 33.488281 C -0.0195312 33.382812 -0.0234375 33.28125 -0.0234375 33.175781 C -0.0234375 32.847656 -0.0234375 32.515625 -0.0234375 32.1875 C -0.0234375 32.074219 -0.0234375 31.960938 -0.0234375 31.847656 C -0.0234375 30.242188 0.0078125 28.679688 0.300781 27.101562 C 0.316406 27 0.335938 26.902344 0.351562 26.796875 C 1.144531 22.257812 2.8125 17.765625 5.5 14 C 5.550781 13.929688 5.597656 13.859375 5.652344 13.789062 C 6.417969 12.714844 7.214844 11.679688 8.101562 10.699219 C 8.152344 10.640625 8.207031 10.578125 8.265625 10.515625 C 9.472656 9.175781 10.761719 7.933594 12.207031 6.847656 C 12.417969 6.6875 12.625 6.527344 12.832031 6.367188 C 14 5.476562 15.222656 4.71875 16.5 4 C 16.574219 3.957031 16.648438 3.914062 16.722656 3.871094 C 20.847656 1.535156 25.867188 0.101562 30.613281 0.078125 Z M 30.613281 0.078125 "/>
<path style=" stroke:none;fill-rule:nonzero;fill:rgb(41.568628%,44.313726%,49.803922%);fill-opacity:1;" d="M 28.730469 11.683594 C 28.902344 11.683594 29.074219 11.683594 29.25 11.683594 C 29.714844 11.679688 30.179688 11.679688 30.644531 11.679688 C 30.9375 11.679688 31.230469 11.679688 31.519531 11.679688 C 32.4375 11.675781 33.351562 11.675781 34.265625 11.675781 C 35.316406 11.675781 36.371094 11.675781 37.421875 11.671875 C 38.238281 11.667969 39.054688 11.667969 39.871094 11.667969 C 40.355469 11.667969 40.84375 11.667969 41.328125 11.664062 C 41.785156 11.664062 42.242188 11.664062 42.699219 11.664062 C 42.867188 11.664062 43.035156 11.664062 43.203125 11.664062 C 45.210938 11.652344 46.433594 12.125 47.898438 13.5 C 48.027344 13.609375 48.152344 13.71875 48.28125 13.824219 C 48.652344 14.140625 48.992188 14.488281 49.332031 14.835938 C 49.621094 15.121094 49.929688 15.382812 50.242188 15.644531 C 50.292969 15.695312 50.347656 15.746094 50.398438 15.800781 C 50.398438 15.867188 50.398438 15.933594 50.398438 16 C 50.484375 16.035156 50.484375 16.035156 50.570312 16.070312 C 51.0625 16.347656 51.371094 16.714844 51.550781 17.257812 C 51.722656 18.078125 51.6875 18.84375 51.261719 19.578125 C 50.785156 20.238281 50.371094 20.507812 49.582031 20.65625 C 49.125 20.726562 48.675781 20.734375 48.21875 20.742188 C 48.121094 20.742188 48.019531 20.746094 47.917969 20.746094 C 47.609375 20.753906 47.296875 20.757812 46.988281 20.761719 C 46.773438 20.765625 46.5625 20.769531 46.351562 20.773438 C 45.832031 20.785156 45.316406 20.792969 44.800781 20.800781 C 44.675781 21.210938 44.757812 21.410156 44.917969 21.8125 C 45.394531 23.058594 45.664062 24.367188 45.699219 25.699219 C 45.703125 25.816406 45.707031 25.9375 45.710938 26.058594 C 45.742188 27.765625 45.511719 29.597656 44.898438 31.199219 C 44.875 31.273438 44.851562 31.34375 44.824219 31.421875 C 44.515625 32.261719 44.050781 33.027344 43.601562 33.800781 C 43.535156 33.800781 43.46875 33.800781 43.398438 33.800781 C 43.375 33.871094 43.351562 33.941406 43.328125 34.015625 C 42.992188 34.769531 42.347656 35.402344 41.699219 35.898438 C 41.636719 35.964844 41.578125 36.027344 41.511719 36.089844 C 41.292969 36.304688 41.070312 36.480469 40.820312 36.65625 C 40.738281 36.714844 40.65625 36.773438 40.574219 36.832031 C 40.300781 37 40.300781 37 39.601562 37.300781 C 39.566406 42.316406 39.535156 47.332031 39.5 52.5 C 38.871094 52.5 38.246094 52.5 37.601562 52.5 C 37.148438 52.050781 37.148438 52.050781 37.085938 51.558594 C 37.070312 51.449219 37.054688 51.34375 37.039062 51.230469 C 37.015625 51.058594 37.015625 51.058594 36.992188 50.882812 C 36.976562 50.761719 36.960938 50.636719 36.945312 50.511719 C 36.894531 50.140625 36.847656 49.769531 36.800781 49.398438 C 36.78125 49.246094 36.78125 49.246094 36.761719 49.09375 C 36.699219 48.601562 36.640625 48.109375 36.585938 47.617188 C 36.351562 45.621094 36.109375 43.617188 35.824219 41.625 C 35.8125 41.542969 35.800781 41.460938 35.789062 41.378906 C 35.734375 40.988281 35.734375 40.988281 35.648438 40.601562 C 35.554688 40.207031 35.558594 39.789062 35.539062 39.382812 C 35.519531 39.042969 35.488281 38.730469 35.398438 38.398438 C 35.253906 38.402344 35.253906 38.402344 35.105469 38.402344 C 34.738281 38.402344 34.371094 38.40625 34.003906 38.40625 C 33.84375 38.40625 33.6875 38.40625 33.527344 38.40625 C 32.679688 38.414062 31.84375 38.40625 31 38.300781 C 31.027344 38.390625 31.027344 38.390625 31.054688 38.484375 C 31.101562 38.648438 31.152344 38.8125 31.199219 38.976562 C 31.273438 39.210938 31.347656 39.445312 31.429688 39.679688 C 31.699219 40.492188 31.882812 41.238281 31.898438 42.101562 C 31.902344 42.183594 31.90625 42.269531 31.910156 42.355469 C 31.914062 42.605469 31.910156 42.851562 31.898438 43.101562 C 31.898438 43.222656 31.898438 43.222656 31.894531 43.347656 C 31.820312 44.773438 31.261719 46.246094 30.601562 47.5 C 30.535156 47.5 30.46875 47.5 30.398438 47.5 C 30.367188 47.605469 30.367188 47.605469 30.332031 47.710938 C 30.167969 48.074219 29.972656 48.308594 29.699219 48.601562 C 29.632812 48.601562 29.566406 48.601562 29.5 48.601562 C 29.464844 48.6875 29.464844 48.6875 29.429688 48.773438 C 29.265625 49.0625 29.0625 49.21875 28.800781 49.425781 C 28.667969 49.53125 28.667969 49.53125 28.53125 49.640625 C 28.300781 49.800781 28.300781 49.800781 28.101562 49.800781 C 28.101562 49.867188 28.101562 49.933594 28.101562 50 C 28 50.03125 27.902344 50.066406 27.800781 50.101562 C 27.917969 50.101562 28.03125 50.101562 28.152344 50.101562 C 28.585938 50.105469 29.019531 50.113281 29.449219 50.121094 C 29.636719 50.125 29.824219 50.125 30.011719 50.128906 C 30.28125 50.128906 30.546875 50.132812 30.816406 50.140625 C 30.941406 50.140625 30.941406 50.140625 31.070312 50.140625 C 31.648438 50.152344 31.648438 50.152344 31.90625 50.386719 C 32 50.601562 32 50.601562 32 50.898438 C 32.066406 50.898438 32.132812 50.898438 32.199219 50.898438 C 32.339844 51.097656 32.472656 51.296875 32.601562 51.5 C 32.632812 51.53125 32.664062 51.566406 32.699219 51.601562 C 32.730469 51.882812 32.722656 52.054688 32.59375 52.3125 C 32.308594 52.589844 32.097656 52.550781 31.707031 52.550781 C 31.632812 52.554688 31.5625 52.554688 31.488281 52.554688 C 31.25 52.554688 31.011719 52.554688 30.773438 52.554688 C 30.601562 52.554688 30.433594 52.558594 30.261719 52.558594 C 29.796875 52.5625 29.332031 52.5625 28.867188 52.558594 C 28.476562 52.558594 28.089844 52.5625 27.699219 52.5625 C 26.785156 52.5625 25.867188 52.5625 24.949219 52.5625 C 24.003906 52.5625 23.058594 52.5625 22.117188 52.570312 C 21.304688 52.570312 20.492188 52.574219 19.679688 52.574219 C 19.195312 52.574219 18.710938 52.574219 18.226562 52.574219 C 17.769531 52.578125 17.316406 52.578125 16.859375 52.574219 C 16.691406 52.574219 16.523438 52.574219 16.355469 52.578125 C 15.441406 52.585938 14.695312 52.578125 14 51.898438 C 13.628906 51.46875 13.515625 51.050781 13.4375 50.5 C 13.425781 50.433594 13.414062 50.367188 13.40625 50.296875 C 13.382812 50.152344 13.359375 50.003906 13.339844 49.855469 C 13.3125 49.675781 13.28125 49.5 13.25 49.320312 C 13.039062 48.105469 13.054688 46.878906 13.054688 45.648438 C 13.054688 45.472656 13.054688 45.472656 13.054688 45.292969 C 13.058594 43.445312 13.148438 41.695312 13.601562 39.898438 C 13.621094 39.820312 13.640625 39.738281 13.660156 39.65625 C 13.777344 39.191406 13.925781 38.746094 14.101562 38.300781 C 14.128906 38.226562 14.15625 38.152344 14.183594 38.074219 C 14.734375 36.648438 15.421875 35.375 16.34375 34.15625 C 16.386719 34.101562 16.429688 34.042969 16.472656 33.984375 C 16.578125 33.851562 16.6875 33.726562 16.800781 33.601562 C 16.867188 33.601562 16.933594 33.601562 17 33.601562 C 17.019531 33.527344 17.042969 33.457031 17.0625 33.382812 C 17.210938 33.078125 17.378906 32.933594 17.640625 32.734375 C 17.804688 32.59375 17.925781 32.449219 18.054688 32.28125 C 18.300781 32 18.445312 31.902344 18.800781 31.800781 C 18.800781 31.734375 18.800781 31.667969 18.800781 31.601562 C 18.867188 31.601562 18.933594 31.601562 19 31.601562 C 19.03125 31.5 19.066406 31.402344 19.101562 31.300781 C 19.40625 31.179688 19.40625 31.179688 19.699219 31.101562 C 19.699219 31.035156 19.699219 30.96875 19.699219 30.898438 C 19.910156 30.75 20.121094 30.609375 20.34375 30.476562 C 20.464844 30.398438 20.585938 30.324219 20.707031 30.25 C 20.769531 30.207031 20.832031 30.167969 20.898438 30.128906 C 21.113281 29.992188 21.320312 29.847656 21.53125 29.703125 C 22.019531 29.375 22.53125 29.125 23.0625 28.882812 C 23.152344 28.839844 23.242188 28.796875 23.335938 28.753906 C 23.71875 28.574219 24.101562 28.398438 24.492188 28.230469 C 24.722656 28.132812 24.941406 28.03125 25.164062 27.914062 C 25.625 27.675781 26.105469 27.503906 26.589844 27.320312 C 26.90625 27.199219 27.203125 27.054688 27.503906 26.894531 C 27.726562 26.785156 27.957031 26.695312 28.1875 26.605469 C 28.621094 26.4375 29.035156 26.238281 29.449219 26.023438 C 29.640625 25.929688 29.835938 25.84375 30.035156 25.761719 C 30.417969 25.59375 30.765625 25.398438 31.125 25.1875 C 31.761719 24.8125 31.761719 24.8125 32.101562 24.699219 C 32.101562 24.632812 32.101562 24.566406 32.101562 24.5 C 32.207031 24.445312 32.308594 24.386719 32.417969 24.332031 C 32.859375 24.078125 33.167969 23.75 33.5 23.367188 C 33.574219 23.285156 33.644531 23.203125 33.71875 23.117188 C 33.785156 23.039062 33.855469 22.960938 33.921875 22.878906 C 33.980469 22.820312 34.039062 22.761719 34.101562 22.699219 C 34.164062 22.699219 34.230469 22.699219 34.300781 22.699219 C 34.300781 22.601562 34.300781 22.503906 34.300781 22.398438 C 34.367188 22.398438 34.433594 22.398438 34.5 22.398438 C 34.5 22.335938 34.5 22.269531 34.5 22.199219 C 34.566406 22.199219 34.632812 22.199219 34.699219 22.199219 C 34.734375 22.035156 34.765625 21.871094 34.800781 21.699219 C 34.867188 21.699219 34.933594 21.699219 35 21.699219 C 35 21.601562 35 21.503906 35 21.398438 C 35.066406 21.398438 35.132812 21.398438 35.199219 21.398438 C 35.207031 21.332031 35.21875 21.265625 35.226562 21.195312 C 35.320312 20.820312 35.488281 20.496094 35.667969 20.15625 C 36.449219 18.628906 37.191406 16.996094 37.5 15.300781 C 37.046875 15.359375 36.679688 15.546875 36.28125 15.757812 C 34.988281 16.417969 33.699219 17 32.300781 17.398438 C 32.074219 17.472656 31.847656 17.542969 31.625 17.617188 C 31.527344 17.652344 31.429688 17.683594 31.328125 17.714844 C 31.105469 17.78125 31.105469 17.78125 31 17.898438 C 30.777344 17.945312 30.554688 17.988281 30.332031 18.03125 C 29.804688 18.132812 29.289062 18.253906 28.773438 18.40625 C 27.144531 18.882812 25.492188 18.9375 23.800781 18.898438 C 23.632812 18.898438 23.632812 18.898438 23.460938 18.898438 C 22.507812 18.867188 21.617188 18.546875 20.898438 17.898438 C 20.617188 17.253906 20.808594 16.195312 21.011719 15.542969 C 21.132812 15.253906 21.257812 14.976562 21.398438 14.699219 C 21.4375 14.625 21.476562 14.546875 21.515625 14.46875 C 21.558594 14.382812 21.558594 14.382812 21.601562 14.300781 C 21.664062 14.300781 21.730469 14.300781 21.800781 14.300781 C 21.824219 14.226562 21.847656 14.152344 21.871094 14.078125 C 22.332031 13.085938 23.730469 12.492188 24.699219 12.101562 C 26.003906 11.65625 27.371094 11.683594 28.730469 11.683594 Z M 28.730469 11.683594 "/>
<path style=" stroke:none;fill-rule:nonzero;fill:rgb(34.117648%,37.254903%,43.137255%);fill-opacity:1;" d="M 11 7.800781 C 11.066406 7.832031 11.132812 7.867188 11.199219 7.898438 C 10.078125 9.023438 8.957031 10.144531 7.800781 11.300781 C 7.800781 11 7.800781 11 7.929688 10.84375 C 7.988281 10.792969 8.046875 10.738281 8.105469 10.679688 C 8.367188 10.433594 8.609375 10.179688 8.84375 9.90625 C 9.394531 9.269531 9.992188 8.691406 10.632812 8.144531 C 10.761719 8.035156 10.882812 7.917969 11 7.800781 Z M 11 7.800781 "/>
</g>
</svg>
